<?xml version="1.0" encoding="UTF-8" standalone="no"?>
<svg
   version="1.1"
   width="1024"
   height="1024"
   id="svg20"
   sodipodi:docname="splash_screen.svg"
   inkscape:version="1.4.3 (0d15f75, 2025-12-25)"
   xmlns:inkscape="http://www.inkscape.org/namespaces/inkscape"
   xmlns:sodipodi="http://sodipodi.sourceforge.net/DTD/sodipodi-0.dtd"
   xmlns="http://www.w3.org/2000/svg"
   xmlns:svg="http://www.w3.org/2000/svg">
  <defs
     id="defs20" />
  <sodipodi:namedview
     id="namedview20"
     pagecolor="#000000"
     bordercolor="#000000"
     borderopacity="0.25"
     inkscape:showpageshadow="2"
     inkscape:pageopacity="0.0"
     inkscape:pagecheckerboard="true"
     inkscape:deskcolor="#ff85ff"
     inkscape:zoom="0.098945473"
     inkscape:cx="-869.16558"
     inkscape:cy="2036.4752"
     inkscape:window-width="1920"
     inkscape:window-height="991"
     inkscape:window-x="-9"
     inkscape:window-y="-9"
     inkscape:window-maximized="1"
     inkscape:current-layer="svg20"
     labelstyle="below" />
  <rect
     style="fill:#ffffff;stroke:#ffc4ff;stroke-width:318.773;stroke-opacity:0"
     id="rect1"
     width="1024"
     height="1024"
     x="0.37853119"
     y="0.21222374" />
  <path
     id="rect107"
     style="fill:#ffffff;fill-opacity:1;stroke:#ffc4ff;stroke-width:0.794379;stroke-opacity:0"
     d="m 277.7969,241.24304 v 578.25197 c 0.46492,0.56353 0.83354,1.37458 1.00921,2.44913 0.1804,1.10332 0.37873,2.20486 0.6599,3.28812 0.44035,1.83247 0.85523,3.67715 1.00456,5.55991 0.008,0.0789 0.0158,0.15857 0.0233,0.2375 0.0896,0.31762 0.17459,0.63577 0.25465,0.95621 0.6959,2.29113 1.55111,4.53438 2.40506,6.77057 1.39607,3.49362 2.73619,7.00875 3.96393,10.56457 1.16668,3.42783 2.25249,6.88497 3.5385,10.27153 0.59494,1.52959 1.27284,3.01063 2.28241,4.32144 0.79987,1.22057 1.62057,2.43065 2.29794,3.72459 0.49804,1.01885 0.88328,2.08502 1.4331,3.07993 0.43386,1.00307 0.79912,2.03394 1.25921,3.02593 0.37858,0.96543 0.92219,1.83675 1.65825,2.57869 0.85043,0.88975 1.63788,1.83014 2.36313,2.8239 0.74389,0.9043 1.47956,1.81421 2.31656,2.63728 0.91449,0.87642 1.79328,1.78964 2.75442,2.61724 0.99953,0.97487 1.87184,2.04274 2.47339,3.31125 0.55639,1.2034 1.07348,2.42551 1.54024,3.66599 0.32015,0.80405 0.61859,1.61569 0.98128,2.40131 0.36496,0.77464 1.04024,1.36328 1.59768,1.99879 1.1329,1.09704 2.23018,2.22851 3.38634,3.30205 1.17355,0.99986 2.39656,1.94232 3.54938,2.96572 1.0487,0.922 2.09039,1.85792 2.87552,3.02296 0.61558,0.78557 1.14307,1.68311 1.99051,2.24854 1.09576,0.52469 2.28268,0.75643 3.46243,1.02718 1.33517,0.39211 2.61852,0.9108 3.88787,1.4775 1.35795,0.56179 2.67883,1.20807 3.99033,1.8692 1.10181,0.5708 2.24786,1.06138 3.41739,1.47758 0.82902,0.24074 1.67015,0.44462 2.49823,0.68931 0.0362,-0.0173 0.0737,-0.0261 0.11024,-0.0276 0.0926,0 0.1808,0.0419 0.23756,0.13257 0.45272,0.14173 0.90039,0.2995 1.3384,0.48584 0.4945,0.21043 0.91644,0.44952 1.27006,0.70638 h 331.63847 c 0.0617,-0.0261 0.12825,-0.049 0.20031,-0.0695 0.61157,-0.16993 1.21503,-0.3674 1.81816,-0.56448 0.1622,-0.39353 0.48202,-0.81558 0.99526,-1.23225 1.60381,-1.30236 3.41921,-2.32765 5.21695,-3.34062 2.00427,-0.98321 4.03253,-1.93056 6.11126,-2.74985 1.48177,-0.54885 3.00243,-0.97846 4.51822,-1.4219 1.46061,-0.39125 2.96449,-0.56156 4.46857,-0.68174 0.24778,-0.17805 0.49065,-0.364 0.72819,-0.55524 0.58165,-0.49563 1.11511,-1.04187 1.67066,-1.56545 0.47148,-0.4342 0.94175,-0.86967 1.40669,-1.31081 0.0453,-0.0427 0.0908,-0.0847 0.13664,-0.12649 0.84863,-0.81132 1.72459,-1.59199 2.58207,-2.39525 0.49507,-0.56322 0.98994,-1.12856 1.45484,-1.7165 0.65632,-0.8144 1.14574,-1.73528 1.64117,-2.6496 0.64478,-1.16404 1.28446,-2.33158 1.96101,-3.47782 0.58213,-0.96142 1.20835,-1.89737 1.88645,-2.7946 0.54174,-0.69491 1.12994,-1.35227 1.74987,-1.97873 0.34938,-0.3647 0.73425,-0.68914 1.13035,-1.00094 0.44152,-0.86931 0.85844,-1.75572 1.41602,-2.55864 0.23927,-0.30944 0.79341,-0.92006 1.26698,-0.58606 0.17991,0.12692 0.29134,0.25941 0.35864,0.39945 0.40137,-0.38778 0.80475,-0.77267 1.21418,-1.15207 0.40525,-0.38597 0.82832,-0.75187 1.25142,-1.11816 0.17897,-0.15489 0.35218,-0.24308 0.50932,-0.2776 0.82153,-1.08737 1.6264,-2.18639 2.42676,-3.28966 0.0701,-0.19746 0.12801,-0.40099 0.17394,-0.60921 0.12428,-0.75402 0.19464,-1.51579 0.33538,-2.26714 0.13423,-0.75877 0.44689,-1.44815 0.85861,-2.09441 0.27411,-0.31764 0.88592,-1.17599 1.37719,-1.14591 0.23668,0.0145 0.44599,0.15801 0.66921,0.23751 0.0453,0.0751 0.0985,0.1472 0.14749,0.22055 0.12088,-0.43748 0.2542,-0.87047 0.43318,-1.28934 0.30549,-0.69078 0.66982,-1.35083 1.08531,-1.98183 0.12743,-1.07647 0.3136,-2.14455 0.59778,-3.19558 0.26407,-0.77577 0.58725,-1.54281 0.99214,-2.22858 0.0878,-0.28539 0.17761,-0.57001 0.26862,-0.85442 0.29616,-0.88513 0.69336,-1.73211 1.11638,-2.56326 0.0869,-0.18786 0.182,-0.37092 0.28102,-0.55213 0.10975,-0.42621 0.23194,-0.84813 0.3633,-1.26929 0.17533,-0.34509 0.39724,-0.8812 0.85555,-0.95622 0.004,-5.4e-4 0.007,-3.4e-4 0.011,-0.002 0.067,-0.43191 0.15611,-0.86007 0.28102,-1.28162 0.34078,-1.09397 0.77412,-2.1623 1.52315,-3.05061 0.0401,-0.0475 0.0808,-0.0931 0.12109,-0.13726 0.0444,-0.15589 0.0925,-0.31098 0.14753,-0.46423 0.18101,-0.45808 0.40587,-0.89872 0.64743,-1.32789 0.18925,-0.32007 0.33337,-0.66263 0.45807,-1.01174 0.16227,-0.41151 0.28229,-0.83573 0.40989,-1.25849 0.13659,-0.51141 0.30139,-1.01477 0.49686,-1.5068 0.17987,-0.48175 0.35585,-0.96452 0.51701,-1.45282 0.11147,-0.3796 0.22788,-0.75809 0.34779,-1.13511 0.12928,-0.43552 0.2547,-0.87275 0.34934,-1.31711 0.0826,-0.44997 0.15101,-0.90201 0.24688,-1.34948 0.0907,-0.40667 0.14462,-0.82077 0.23447,-1.22766 0.091,-0.42059 0.16595,-0.8435 0.25463,-1.26465 0.1178,-0.58225 0.29358,-1.14649 0.50927,-1.69959 0.17503,-0.45306 0.34823,-0.90565 0.52323,-1.35874 0.15453,-0.70489 0.30963,-1.40958 0.46425,-2.11446 0.13967,-0.68297 0.29644,-1.36234 0.46424,-2.03888 0.005,-0.46403 0.007,-0.92863 0.008,-1.39269 0,-0.69645 -0.0127,-1.39204 0.0435,-2.08669 0.077,-0.69215 0.17401,-1.38273 0.26861,-2.07282 0.09,-0.64922 0.21758,-1.2897 0.39126,-1.92166 0.14893,-0.48976 0.29899,-0.97925 0.45029,-1.46825 0.14053,-0.37491 0.27468,-0.75054 0.42229,-1.12277 0.1176,-0.30339 0.17462,-0.62174 0.2034,-0.94387 0.0352,-0.76548 0.10713,-1.52737 0.17701,-2.29027 0.0557,-0.71126 0.10115,-1.42358 0.17856,-2.13296 0.0969,-0.69384 0.24275,-1.38055 0.41144,-2.06048 0.13521,-0.52414 0.34304,-1.02486 0.5683,-1.51606 0.0517,-0.10281 0.336,-0.65531 0.46113,-0.66009 v 0 0 0.002 0 c 0.1843,0.0197 0.32978,0.0334 0.44563,0.0463 V 241.24304 Z m 469.18693,576.57552 c -0.029,0.14028 -0.0581,0.28072 -0.0869,0.42103 0.027,-0.0189 0.0558,-0.0339 0.0869,-0.0432 z m -0.0869,1.29088 v 0.002 0.002 0.002 c 0.0172,0.0249 0.0389,0.0468 0.059,0.0694 -0.004,-0.0116 -0.009,-0.0225 -0.0139,-0.0339 v -0.002 c -0.008,-0.0133 -0.0348,-0.0338 -0.0435,-0.037 v 0 -0.002 z m -0.77789,5.08024 c -0.034,0.28108 -0.0697,0.56127 -0.10558,0.84208 0.0344,-0.0194 0.0701,-0.0339 0.10558,-0.0447 0,-0.0381 0,-0.076 0,-0.11413 4e-5,-0.22796 8e-5,-0.45549 0,-0.68322 z m -0.77633,8.55654 c -0.0879,0.0485 -0.16273,0.0893 -0.22667,0.12493 0.063,-0.002 0.12699,-0.004 0.18941,-0.003 0.0123,-0.041 0.0245,-0.0812 0.0373,-0.12184 z m -0.29499,0.037 v 0.002 c -0.0118,0.005 -0.053,0.0413 -0.0978,0.0864 0.011,6.2e-4 0.023,0.002 0.034,0.002 0.0262,-0.0201 0.0474,-0.0474 0.0637,-0.0818 v -0.002 -0.002 -0.002 -0.002 -0.002 z m -0.31209,0.81896 v 0.002 0.002 c 0,0.002 -0.004,0.007 -0.004,0.009 v 0.002 0.002 c -4e-5,7.2e-4 -4e-5,0.004 0,0.005 v 0.002 0.002 c 0.006,0.0117 0.0114,0.0243 0.0172,0.037 -0.004,-0.0198 -0.006,-0.0405 -0.009,-0.0602 v 0 z m -0.77478,3.21564 c -0.004,0.0508 -0.004,0.10355 -0.006,0.15422 0.0147,-0.0294 0.0295,-0.058 0.0435,-0.0864 -0.0118,-0.0217 -0.0254,-0.0459 -0.0373,-0.0679 z m -1.23591,1.05953 c -0.018,0.0811 -0.0365,0.17061 -0.0544,0.25139 0.0123,-5.1e-4 0.0262,-0.002 0.0389,-0.002 0.006,-0.0805 0.0106,-0.16905 0.0156,-0.24986 z m -0.78407,3.70762 c -0.0807,0.37588 -0.1617,0.75206 -0.24378,1.12741 0.1068,-0.34712 0.20955,-0.69524 0.31054,-1.04412 -0.0226,-0.027 -0.0447,-0.055 -0.0668,-0.0833 z m 5.043,0.60304 c -0.0303,0.35573 -0.06,0.71154 -0.0901,1.06724 0.0319,0.0123 0.0616,0.0276 0.0901,0.0447 z m -453.0129,35.37818 c 0.0528,0.11729 0.10541,0.23432 0.15837,0.35163 0.0295,0.0172 0.0589,0.0345 0.0885,0.0524 -0.0848,-0.13337 -0.16681,-0.26773 -0.24688,-0.40408 z m 424.46266,8.29279 c -0.18201,0.14977 -0.36683,0.29557 -0.55586,0.43647 -0.29994,0.61436 -0.59185,1.23201 -0.87573,1.8538 0.4283,-0.55308 0.85346,-1.10808 1.27475,-1.66565 0.0466,-0.18336 0.10092,-0.39929 0.15684,-0.62462 z m -2.93764,2.75605 c -0.16608,0.19581 -0.32777,0.39449 -0.48598,0.59686 -0.65199,0.86083 -1.25201,1.75962 -1.81197,2.682 -0.48561,0.82201 -0.95034,1.65554 -1.41292,2.49077 0.86198,-0.98626 1.70597,-1.98591 2.54789,-2.98892 0.36891,-0.93403 0.75736,-1.86112 1.16298,-2.78071 z m -426.60221,16.81234 c -0.022,0.14978 -0.0455,0.29728 -0.0714,0.44407 0.0381,-0.0663 0.0776,-0.14142 0.1211,-0.23128 0.004,-0.009 0.008,-0.0173 0.0124,-0.0261 -0.0205,-0.0624 -0.0412,-0.1242 -0.0621,-0.18658 z m -4.33968,5.12803 c -0.002,0.015 -0.005,0.0308 -0.008,0.0466 0.009,-0.008 0.0172,-0.0118 0.0264,-0.0181 z m 24.09106,1.33402 c -8.3e-4,0.008 -0.002,0.0158 -0.003,0.0245 h 0.002 0.002 0.002 0.002 0.002 0.002 0.002 0.002 0.002 0.002 0.002 0.002 0.002 0.002 0.002 0.002 0.002 c -0.008,-0.008 -0.0151,-0.0174 -0.0233,-0.0245 z m 7.4248,3.18018 c -0.064,0.008 -0.13095,0.0119 -0.20029,0.0142 -0.22678,0.008 -0.45357,0.0126 -0.68007,0.0261 -0.18993,0.0126 -0.37896,0.0276 -0.56828,0.0466 h 1.71725 c -0.0901,-0.0276 -0.17936,-0.0568 -0.26861,-0.0864 z m 426.62235,0.0818 c 8e-5,0 1.6e-4,-1.5e-4 0,0.008 h 0.007 v 0 c 2.4e-4,0 0,0 0,-0.008 v 0 0 0 0 z" />
  <path
     d="m 360.58443,110.99498 c 1.34856,-0.003 2.69712,-0.006 4.04567,-0.0112 3.68377,-0.01 7.36738,-0.005 11.05115,0.002 3.98138,0.005 7.96275,-0.003 11.94414,-0.009 7.79107,-0.0105 15.5821,-0.008 23.37318,-0.001 6.33407,0.005 12.66811,0.006 19.00217,0.004 0.90251,-3.6e-4 1.80502,-7.3e-4 2.73489,-0.001 1.83362,-7.5e-4 3.66724,-0.002 5.50086,-0.002 17.18284,-0.007 34.36564,10e-4 51.54846,0.0137 14.73257,0.0106 29.4651,0.009 44.19763,-0.002 17.12136,-0.0127 34.2427,-0.0177 51.36406,-0.0104 1.82702,7.6e-4 3.65401,10e-4 5.48101,0.002 0.89887,3.7e-4 1.79772,7.3e-4 2.7238,0.001 6.3235,0.002 12.64697,-0.001 18.97048,-0.007 7.71052,-0.007 15.42099,-0.005 23.1315,0.008 3.93142,0.006 7.86271,0.009 11.79412,8.3e-4 3.60373,-0.007 7.20726,-0.003 10.81095,0.009 1.29879,0.003 2.59763,10e-4 3.89639,-0.004 18.73935,-0.0769 32.87022,5.97042 46.27953,18.81657 26.75055,28.39283 36.14902,70.05114 36.14902,107.83569 -153.72959,0 -307.45915,0 -465.84719,0 0,-7.24381 0.11676,-14.081 0.94402,-21.22167 0.10465,-0.91185 0.2093,-1.8237 0.31712,-2.76317 1.66402,-13.64335 4.50273,-26.99886 9.07336,-39.97627 0.16856,-0.49942 0.33714,-0.99883 0.51082,-1.51337 4.09259,-12.09556 9.85711,-23.92619 17.77327,-34.0206 0.5052,-0.66061 1.01041,-1.32123 1.53092,-2.00186 13.5605,-17.34074 29.70913,-25.24451 51.69867,-25.14684 z"
     fill="#fefefe"
     id="path3"
     style="stroke-width:0.792299" />
  <path
     d="m 707.86616,625.5018 c 4.63328,3.8133 4.63328,3.8133 5.28215,7.37206 0.23185,3.90979 0.0831,6.73983 -2.45009,9.85204 -4.30123,4.14359 -8.2098,5.00874 -14.064,5.20671 -2.1915,0.18286 -2.1915,0.18286 -3.98082,1.49273 -2.3446,1.31925 -3.83026,1.56189 -6.4996,1.71828 -1.24722,0.0831 -1.24722,0.0831 -2.51957,0.16791 -0.87376,0.0495 -1.74747,0.0989 -2.64768,0.14979 -1.79918,0.12287 -3.59821,0.24829 -5.39702,0.37632 -0.858,0.0603 -1.71597,0.12063 -2.59996,0.18276 -4.2763,0.33152 -8.46572,0.91521 -12.67202,1.7605 -0.74192,0.1425 -1.48383,0.28501 -2.24826,0.43184 -5.10309,1.16105 -8.78223,3.25599 -13.0889,6.16909 -2.71216,1.63277 -5.35309,2.40541 -8.40608,3.18017 -1.82158,0.4367 -1.82158,0.4367 -3.6829,1.71809 -2.59173,1.48028 -5.09046,1.78938 -8.02727,2.22088 -1.96203,0.3561 -1.96203,0.3561 -3.31027,1.70883 -2.75489,1.78612 -5.51667,1.43674 -8.73524,1.44974 -5.70903,0.14924 -9.20077,0.70664 -13.71309,4.44174 -1.9486,0.96781 -3.2501,0.90538 -5.42908,0.92941 -1.19809,0.0151 -1.19809,0.0151 -2.42046,0.0307 -0.86614,0.006 -1.73229,0.0117 -2.62467,0.0177 -0.88822,0.007 -1.77643,0.0127 -2.69158,0.0194 -1.88253,0.0109 -3.76502,0.0195 -5.64758,0.0256 -2.87898,0.0136 -5.75726,0.0482 -8.63605,0.0831 -1.82748,0.008 -3.65495,0.0147 -5.48246,0.02 -0.86132,0.0138 -1.72263,0.0276 -2.61006,0.0419 -4.68909,-0.0134 -7.05621,-0.19039 -10.56579,-3.53669 -1.72857,-0.259 -1.72857,-0.259 -3.42518,0.1203 -0.93127,0.15097 -0.93127,0.15097 -1.88142,0.30499 -0.60986,0.12023 -1.21971,0.24047 -1.84806,0.36435 -0.53094,0.0989 -1.0619,0.19773 -1.60893,0.29959 -1.0474,0.19994 -2.09387,0.40454 -3.13948,0.61344 -6.51979,1.25921 -12.95889,1.7532 -19.59727,1.85072 -0.8004,0.024 -1.60077,0.0479 -2.42545,0.0727 -5.3264,0.003 -8.87602,-0.96422 -12.97691,-4.41572 -1.9874,-2.22088 -1.9874,-2.22088 -3.17984,-3.94822 -3.51491,0.50255 -6.74774,1.37503 -10.13577,2.41828 -7.05155,1.97109 -16.02087,3.53065 -22.98244,0.65701 -2.74103,-2.08535 -3.37425,-3.55393 -4.19529,-6.92481 -0.0245,-1.22147 -0.0245,-1.22147 -0.0497,-2.46763 -6.17709,0.22111 -11.55299,1.2463 -17.41461,3.18016 -2.80804,0.87694 -5.58989,1.39352 -8.48374,1.89701 -2.08218,0.48703 -3.84752,1.26671 -5.80073,2.12833 -4.32397,1.62448 -8.44218,1.88079 -13.01748,1.9741 -0.67724,0.0276 -1.35447,0.0552 -2.05222,0.0837 -4.46626,-0.008 -6.97548,-0.89682 -10.19127,-4.0153 -1.34915,-1.63562 -2.11798,-3.20641 -2.66203,-5.24798 -2.07232,0.31855 -4.14145,0.64944 -6.21063,0.98706 -0.5713,0.0865 -1.14259,0.17304 -1.73122,0.26218 -3.46062,0.57544 -6.51142,1.44674 -9.76776,2.7545 -4.91678,1.84462 -9.46916,2.04854 -14.68506,2.0173 -0.86181,0.0254 -1.72363,0.0508 -2.61157,0.0772 -5.03234,0.007 -8.05343,-0.47388 -11.70004,-4.03401 -2.5855,-3.32389 -2.7085,-6.54712 -2.20866,-10.53738 0.11605,-0.94999 0.11605,-0.94999 0.23446,-1.91917 0.093,-0.71887 0.093,-0.71887 0.18787,-1.45225 -3.61041,-0.0459 -7.22074,-0.074 -10.83136,-0.0987 -1.02168,-0.0132 -2.04335,-0.0265 -3.09599,-0.0401 -0.98889,-0.005 -1.97778,-0.0102 -2.99663,-0.0154 -0.90755,-0.008 -1.81509,-0.0165 -2.75015,-0.025 -2.71254,0.18816 -4.81782,0.81274 -7.35456,1.75859 -6.73086,1.97286 -16.04541,3.46914 -22.72159,0.74028 -2.94194,-2.26398 -4.41498,-4.99757 -5.02751,-8.62748 -0.15534,-3.31116 0.49644,-5.76016 2.50288,-8.43006 4.13568,-4.14901 9.31693,-4.80521 14.91173,-5.79288 1.47447,-0.29371 2.94852,-0.58958 4.42197,-0.88836 0.60767,-0.11604 1.21536,-0.23207 1.84145,-0.35164 1.06659,-0.21461 2.12771,-0.46016 3.17684,-0.74737 1.70929,-0.38611 3.21346,-0.49187 4.96375,-0.5088 0.95616,-0.0114 0.95616,-0.0114 1.93161,-0.023 0.68399,-0.003 1.36799,-0.007 2.07271,-0.0102 0.71395,-0.005 1.42793,-0.009 2.16353,-0.0137 1.51282,-0.007 3.02566,-0.0127 4.53851,-0.0156 2.28549,-0.008 4.5704,-0.0321 6.85577,-0.0571 20.01754,-0.11774 20.01754,-0.11774 27.31746,6.86311 1.86942,2.11132 2.09983,3.77265 2.37556,6.51147 0.0666,0.64536 0.13322,1.2907 0.20185,1.95562 0.0482,0.49468 0.0963,0.98939 0.14594,1.49907 0.80342,-0.34201 1.60682,-0.68401 2.43457,-1.03639 3.73756,-1.40959 7.55661,-2.0836 11.47668,-2.81253 3.22454,-0.61595 6.15247,-1.43052 9.1861,-2.6502 5.54676,-2.17953 10.54681,-3.69871 16.46129,-2.18079 3.01478,1.32747 5.14538,3.34093 6.54911,6.31099 0.11799,2.554 0.11799,2.554 0,4.73786 0.66302,-0.15268 1.32603,-0.30537 2.00913,-0.46269 0.89462,-0.2056 1.78923,-0.41123 2.71095,-0.62307 0.94584,-0.21783 1.89169,-0.43566 2.8662,-0.66009 2.17138,-0.4923 4.34463,-0.95895 6.52428,-1.41272 2.99721,-0.65194 5.83946,-1.58897 8.73525,-2.58794 2.36075,-0.74926 4.74384,-1.25632 7.17329,-1.73352 1.8835,-0.40339 1.8835,-0.40339 4.0369,-1.23998 6.1317,-1.84452 14.05586,-1.60198 20.00135,0.82358 1.9602,1.62816 3.57113,3.27705 4.76976,5.52749 0.12422,2.1561 0.12422,2.1561 0,3.94823 0.93611,-0.24278 0.93611,-0.24278 1.89114,-0.49045 9.46871,-2.4119 20.48543,-4.86519 29.90732,-1.08881 1.8992,1.64714 3.4894,3.3645 4.76978,5.52751 0,0.78174 0,1.56349 0,2.36892 8.24365,-0.96825 16.37366,-2.02927 24.34567,-4.39239 0.55893,-0.1656 1.11785,-0.33119 1.69374,-0.50182 2.47834,-0.7724 4.37618,-1.56008 6.55397,-3.00222 3.93576,-1.09102 7.43949,-0.95574 11.12946,0.78964 1.88355,1.64896 3.44159,3.40865 4.76977,5.5275 0,0.52117 0,1.04233 0,1.57929 12.57657,0.77379 12.57657,0.77379 23.50102,-4.24433 0.88694,-0.93749 0.88694,-0.93749 1.79177,-1.89391 2.59181,-2.62513 5.12018,-3.95393 8.80046,-4.414 0.73475,0.0133 1.46949,0.0265 2.22652,0.0402 0.74092,0.003 1.4818,0.007 2.24517,0.009 1.97807,0.23751 1.97807,0.23751 4.36296,1.8168 5.14943,0.25156 9.6765,-0.85767 14.25338,-3.13081 1.64584,-0.8174 1.64584,-0.8174 3.6084,-1.56695 2.0712,-0.85405 3.80685,-1.89323 5.68893,-3.09996 11.97129,-7.13472 26.14515,-8.21947 39.87384,-8.41676 3.86891,-0.10388 6.25097,-0.8819 9.71187,-2.73696 6.06933,-1.41452 13.78476,-3.13289 19.72495,-0.64158 z"
     fill="#000000"
     id="path4"
     style="stroke-width:0.792299" />
  <path
     d="m 356.17682,107.73613 c 1.38791,-0.004 2.77582,-0.009 4.16372,-0.0149 3.79257,-0.0131 7.58489,-0.007 11.37744,0.003 4.09845,0.007 8.19685,-0.004 12.29528,-0.0126 8.02066,-0.014 16.04122,-0.011 24.06185,-0.002 6.52054,0.007 13.04103,0.008 19.56156,0.005 0.92899,-4.8e-4 1.85798,-9.7e-4 2.81512,-0.001 1.8874,-10e-4 3.77479,-0.002 5.66219,-0.003 17.68781,-0.009 35.37558,0.001 53.06339,0.0183 15.16645,0.0141 30.33282,0.0117 45.49927,-0.003 17.62445,-0.0169 35.24885,-0.0236 52.8733,-0.0139 1.8806,0.001 3.7612,0.002 5.64181,0.003 1.38778,7.3e-4 1.38778,7.3e-4 2.80365,0.001 6.50988,0.003 13.01973,-0.002 19.52962,-0.009 7.93745,-0.009 15.87483,-0.006 23.81229,0.0104 4.04735,0.008 8.09453,0.0116 12.14187,0.001 3.70971,-0.009 7.41906,-0.004 11.12874,0.0126 1.3373,0.004 2.67462,0.002 4.01189,-0.006 18.80022,-0.0999 32.45752,7.46306 45.55965,20.31596 1.61579,1.73011 3.10825,3.50749 4.58033,5.35987 0.6087,0.76429 1.21741,1.52858 1.84458,2.31603 17.87005,23.25005 26.18559,52.65734 29.15891,81.36938 0.0691,0.6362 0.13836,1.27238 0.20963,1.92786 0.56662,5.58121 0.69869,11.09997 0.6898,16.70674 0.004,1.45539 0.004,1.45539 0.005,2.94018 0.004,2.68083 0.004,5.36162 0.004,8.04244 0,2.92148 0.004,5.84291 0.007,8.76437 0.006,5.78899 0.007,11.57796 0.008,17.36695 0,6.9367 0.006,13.87341 0.0114,20.8101 0.0127,16.76524 0.0176,33.53048 0.0213,50.29572 0,7.93653 0.005,15.87306 0.007,23.80958 0.0102,27.18536 0.0188,54.37072 0.0213,81.55608 2e-4,1.70583 3.7e-4,3.41168 0,5.11751 2e-4,1.70989 3.7e-4,3.41976 0,5.12965 3.7e-4,3.43014 0,6.86028 0,10.29043 1.2e-4,0.85047 2e-4,1.70094 2.8e-4,2.57718 0.004,27.5598 0.0156,55.11958 0.034,82.67938 0.0197,29.16017 0.0303,58.32034 0.0315,87.4805 1.6e-4,3.20463 3.3e-4,6.40926 0,9.61387 4e-5,0.78902 8e-5,1.57804 1.2e-4,2.39099 0,12.66807 0.01,25.3361 0.0213,38.00416 0.0114,12.74774 0.0139,25.49546 0.007,38.24321 -0.004,7.56104 0,15.12201 0.0123,22.68304 0.007,5.06587 0.007,10.13168 0,15.19757 -0.004,2.87644 -0.005,5.75274 0.006,8.62917 0.14355,43.45545 -8.31209,89.15838 -40.00069,121.26624 -12.86111,12.67602 -26.92148,17.54483 -44.73022,17.48276 -1.37951,0 -2.75907,0.009 -4.1386,0.015 -3.77313,0.0127 -7.54611,0.011 -11.31923,0.008 -4.07629,0 -8.15249,0.009 -12.22874,0.019 -7.97929,0.0166 -15.95855,0.0205 -23.93788,0.019 -6.4879,0 -12.97586,0 -19.46379,0.008 -1.8707,0 -3.7414,0 -5.6121,0.008 -0.93119,7.9e-4 -1.86234,0 -2.82174,0 -17.6014,0.015 -35.20281,0.0142 -52.8042,0.009 -16.08933,-0.008 -32.17858,0.0118 -48.26791,0.0379 -16.53384,0.0268 -33.06764,0.0387 -49.60151,0.0348 -9.27712,0 -18.55415,0 -27.83128,0.0222 -7.89846,0.0166 -15.79678,0.0197 -23.69526,0.008 -4.02665,-0.008 -8.05304,-0.008 -12.07966,0.008 -3.69269,0.015 -7.38489,0.011 -11.07755,-0.008 -1.32935,0 -2.65873,-7e-5 -3.98802,0.011 -17.41253,0.13154 -30.76265,-6.52531 -43.11273,-18.53806 -29.25474,-29.63102 -37.0114,-74.65521 -36.90437,-114.37723 0.006,-3.00839 -0.003,-6.01675 -0.01,-9.02513 -0.01,-5.25448 -0.0108,-10.5089 -0.006,-15.76338 0.007,-7.81411 8.2e-4,-15.62818 -0.008,-23.4423 -0.0156,-13.96192 -0.0174,-27.92382 -0.0133,-41.88576 0.004,-12.22017 0.003,-24.44034 -0.002,-36.66052 -4.1e-4,-1.64261 -0.002,-3.28522 -0.002,-4.92781 -8.2e-4,-2.47562 -0.002,-4.95122 -0.002,-7.42683 -0.008,-22.99884 -0.0123,-45.99767 -0.007,-68.99653 2.4e-4,-0.86593 4.1e-4,-1.73186 8.2e-4,-2.62404 0.002,-7.03093 0.004,-14.06184 0.007,-21.09274 0.008,-27.42007 0.002,-54.8401 -0.017,-82.26017 -0.0207,-30.84627 -0.031,-61.69252 -0.0253,-92.53879 4.1e-4,-3.29227 8.3e-4,-6.58456 0.002,-9.87683 2.1e-4,-1.21585 2.1e-4,-1.21585 4.1e-4,-2.45627 0.002,-12.20692 -0.005,-24.41385 -0.0149,-36.62075 -0.0118,-13.89037 -0.0125,-27.7807 0.002,-41.67106 0.008,-7.76107 0.007,-15.52201 -0.007,-23.28308 -0.008,-5.19888 -0.005,-10.39766 0.007,-15.59651 0.007,-2.95226 0.009,-5.9043 -0.003,-8.85656 -0.15784,-40.49943 9.3512,-83.92679 38.61789,-113.90194 12.26511,-11.7738 25.56859,-16.83031 42.4126,-16.73347 z m -48.55803,29.47626 c -17.12025,23.12543 -24.87779,51.71801 -28.08757,79.87368 -0.10453,0.90576 -0.20905,1.81151 -0.31675,2.7447 -0.58723,5.97379 -0.47822,11.72599 -0.47822,17.78191 153.72956,0 307.45914,0 465.84719,0 0,-8.48091 -0.20263,-16.30529 -1.34149,-24.62207 -0.0708,-0.5267 -0.14147,-1.05341 -0.21434,-1.59606 -3.81119,-28.16447 -12.6836,-58.27389 -33.06848,-79.13803 -1.94393,-2.0138 -1.94393,-2.0138 -3.46553,-4.00603 -2.00591,-2.36515 -4.2926,-4.09299 -6.82546,-5.85329 -0.49134,-0.34252 -0.98261,-0.68503 -1.48881,-1.03793 -12.0403,-8.22653 -23.54445,-10.428 -37.91385,-10.37027 -1.34813,-0.003 -2.69625,-0.008 -4.04437,-0.0129 -3.67888,-0.0113 -7.35765,-0.008 -11.03654,-0.002 -3.97763,0.004 -7.95517,-0.006 -11.9328,-0.0142 -7.78249,-0.0136 -15.56488,-0.0142 -23.34735,-0.0101 -6.32798,0.003 -12.65591,0.002 -18.98387,-0.002 -0.90197,-6e-4 -1.80394,-0.001 -2.73321,-0.002 -1.8325,-0.001 -3.66505,-0.002 -5.49756,-0.004 -17.17002,-0.0108 -34.33997,-0.007 -51.50996,0.003 -15.6934,0.008 -31.38671,-0.002 -47.08009,-0.0213 -16.13145,-0.0193 -32.26287,-0.0268 -48.39433,-0.0216 -9.0496,0.003 -18.09914,0.001 -27.14874,-0.0128 -7.70349,-0.0116 -15.40687,-0.0121 -23.11037,0.002 -3.92681,0.007 -7.85344,0.008 -11.78023,-0.004 -3.60138,-0.011 -7.20241,-0.007 -10.80377,0.008 -1.29611,0.003 -2.59226,7e-4 -3.88835,-0.008 -22.19324,-0.1317 -37.67937,9.38655 -51.35515,26.32513 z m -28.88254,104.34772 c -0.0685,96.00402 -0.0685,96.00402 -0.11487,192.00803 -0.005,13.91762 -0.01,27.83524 -0.0152,41.75286 -8.1e-4,1.68331 -0.002,3.36663 -0.002,5.04995 -0.0102,26.80477 -0.0281,53.60954 -0.05,80.41431 -0.0225,27.56367 -0.0372,55.12736 -0.0421,82.69102 -8.3e-4,3.89893 -0.002,7.79784 -0.002,11.69676 -1.6e-4,0.76732 -3.2e-4,1.53463 -4.2e-4,2.3252 -0.003,12.31969 -0.0138,24.63937 -0.0281,36.95905 -0.0141,12.40478 -0.0194,24.80956 -0.0159,37.21434 0.002,7.35735 -0.003,14.71464 -0.0174,22.07199 -0.009,4.93143 -0.009,9.8628 -0.002,14.7942 0.004,2.79916 0.004,5.59817 -0.007,8.39732 -0.13333,41.59702 7.15084,87.81194 37.45293,118.97854 10.43573,10.21068 23.55614,16.79315 38.41825,16.81471 0.82395,0 0.82395,0 1.66457,0.008 1.84001,0.008 3.67997,0.008 5.51999,0.008 1.33291,0 2.66582,0.008 3.99873,0.009 3.6627,0.008 7.32538,0.011 10.98809,0.0127 3.95062,0 7.90122,0.011 11.85185,0.0174 9.54122,0.0158 19.08245,0.0237 28.62369,0.0308 4.49576,0 8.99152,0.008 13.48731,0.0119 14.94978,0.0134 29.89957,0.0253 44.84936,0.0308 3.87851,0 7.757,0 11.6355,0.008 0.96396,3.9e-4 1.92791,0 2.92107,0 15.60839,0.008 31.21671,0.0268 46.8251,0.0521 16.03334,0.0261 32.06667,0.0403 48.10005,0.0426 8.99862,0 17.99716,0.009 26.99578,0.0285 7.66516,0.0174 15.33028,0.0237 22.99548,0.0158 3.90755,0 7.81493,0 11.72244,0.0134 3.58499,0.0142 7.1696,0.0134 10.75458,0 1.28934,0 2.57872,0 3.86803,0.011 16.56744,0.11362 31.13812,-4.07243 43.27234,-15.69433 1.22192,-1.20672 2.42786,-2.42751 3.63165,-3.6521 0.70298,-0.69101 1.40596,-1.38203 2.13026,-2.09398 8.82847,-9.08174 14.91754,-20.42687 20.12867,-31.85389 0.23849,-0.52182 0.47701,-1.04365 0.72275,-1.58127 7.19489,-16.12185 10.9094,-33.84164 12.79155,-51.31422 0.0693,-0.63281 0.13853,-1.26563 0.20988,-1.91762 0.55811,-5.52252 0.69622,-10.98011 0.68291,-16.52772 0,-1.42461 0,-1.42461 0.004,-2.87802 0,-2.62318 -3e-5,-5.24631 -0.004,-7.86947 -0.004,-2.85865 0,-5.7173 0,-8.57594 0,-5.00565 3.3e-4,-10.01128 -0.004,-15.01692 -0.005,-7.44316 -0.005,-14.88633 -0.004,-22.3295 0,-12.52165 0,-25.04331 -0.006,-37.56498 -0.005,-12.39644 -0.007,-24.79287 -0.009,-37.18931 -4e-5,-0.77103 -1.2e-4,-1.54206 -1.6e-4,-2.33646 -2.9e-4,-3.91571 0,-7.83143 0,-11.74713 0,-27.72867 -0.007,-55.45733 -0.0143,-83.18601 -0.007,-26.93654 -0.0131,-53.8731 -0.0164,-80.80964 -2.1e-4,-1.69412 -4.1e-4,-3.38824 0,-5.08236 0,-13.7656 -0.004,-27.53119 -0.005,-41.2968 -0.007,-63.6478 -0.0233,-127.2956 -0.038,-190.94341 -153.72958,0 -307.45915,0 -465.84718,0 z"
     fill="#000000"
     id="path5"
     style="stroke-width:0.792219" />
  <path
     d="m 368.81528,520.08438 c 0.63893,-0.0127 1.27786,-0.0254 1.93616,-0.0385 8.97909,-0.007 15.81243,3.52684 22.35982,9.46493 5.83552,9.20618 4.32265,20.65775 4.07419,31.09221 3.57665,-0.0154 7.15185,-0.0567 10.72789,-0.12049 1.21254,-0.0181 2.4252,-0.0296 3.63788,-0.0339 6.75257,-0.0286 12.3379,-0.35878 18.43859,-3.55069 4.2904,-2.03821 8.97602,-2.84857 13.60148,-3.84584 0.52661,-0.11672 1.05321,-0.23343 1.59578,-0.35368 8.99939,-1.99024 18.00797,-3.41327 27.16838,-4.46921 5.62406,-0.66144 5.62406,-0.66144 11.01185,-2.3055 5.96747,-2.32846 13.61441,-1.91246 19.54797,0.46576 1.05794,1.34254 1.05794,1.34254 2.09609,2.8748 1.77806,2.1444 1.77806,2.1444 4.36974,2.93321 1.97541,-0.15787 3.8231,-0.49175 5.75668,-0.92209 0.64558,-0.11146 1.29122,-0.22291 1.95637,-0.33776 3.89032,-0.74005 7.17676,-1.92831 10.64151,-3.83119 4.50505,-2.28539 9.92733,-2.65085 14.85932,-3.42211 2.38754,-0.44129 4.6488,-1.04743 6.97454,-1.73661 5.01321,-1.40947 9.18305,-1.69168 14.22433,-0.29996 3.59608,0.90237 7.03132,1.05373 10.7269,1.0927 0.67229,0.0134 1.3446,0.0268 2.03727,0.0406 2.13321,0.0416 4.26647,0.0735 6.39989,0.1043 2.8021,0.0464 5.60412,0.098 8.40608,0.15114 0.6803,0.0108 1.3606,0.0217 2.06154,0.0329 3.70603,0.0711 7.32593,0.30604 11.01186,0.7259 4.57235,0.4085 8.70529,-0.33589 13.16022,-1.22881 7.51435,-1.44159 15.07954,-1.28477 22.70597,-1.31864 1.93182,-0.0124 3.8631,-0.0383 5.79471,-0.0652 0.5846,0.002 1.16919,0.005 1.77147,0.007 3.40425,-0.0498 5.11841,-0.49681 7.67801,-2.69696 2.1963,-0.31903 4.30253,-0.54031 6.50879,-0.69092 4.85684,-0.43937 8.3498,-1.14509 12.47713,-3.86494 2.66046,-1.53586 5.53133,-2.08127 8.50235,-2.7946 2.03301,-0.46949 2.03301,-0.46949 3.91272,-1.87848 3.42119,-1.78414 6.97577,-1.71334 10.73198,-1.03642 2.77033,1.57316 4.92508,3.46718 6.35969,6.31716 0.54551,3.65773 0.81277,7.15731 -0.96267,10.49669 -3.60905,4.35071 -8.79271,8.55404 -14.4832,9.59911 -1.20575,0.0907 -2.41288,0.16546 -3.6208,0.22208 -2.54801,0.33846 -4.2831,1.94483 -6.3721,3.37142 -3.58739,1.16742 -7.23341,1.60643 -10.98042,1.92475 -2.88785,0.27344 -4.27948,0.91513 -6.50873,2.81311 -3.68725,1.0363 -7.46065,0.95089 -11.26296,1.01172 -1.04463,0.0218 -1.04463,0.0218 -2.11033,0.0441 -2.97075,0.062 -5.94167,0.11577 -8.91258,0.16994 -2.17206,0.0408 -4.344,0.086 -6.51593,0.13148 -0.67487,0.0107 -1.34977,0.0215 -2.04509,0.0325 -3.36557,-0.0183 -3.36557,-0.0183 -6.51627,0.97925 -2.61613,0.34668 -5.23192,0.64311 -7.85644,0.91765 -2.5876,0.29382 -4.82438,0.64858 -7.3037,1.4883 -2.7535,0.88981 -5.10205,0.99009 -7.9931,0.9994 -0.95301,0.0132 -1.90606,0.0264 -2.88794,0.0401 -2.57745,-0.28675 -2.57745,-0.28675 -3.8378,-1.46562 -3.06654,-1.90122 -6.22546,-1.55405 -9.76971,-1.56638 -1.14652,-0.0185 -1.14652,-0.0185 -2.31615,-0.0373 -2.44093,-0.0375 -4.88165,-0.0594 -7.32274,-0.0799 -2.44097,-0.0289 -4.88185,-0.061 -7.32273,-0.0969 -1.51817,-0.0214 -3.03645,-0.0383 -4.55473,-0.0501 -0.68977,-0.008 -1.37957,-0.0162 -2.09025,-0.0245 -0.60473,-0.006 -1.20947,-0.0103 -1.83254,-0.0155 -1.6889,-0.10899 -1.6889,-0.10899 -3.39353,-0.53569 -1.98286,-0.48783 -3.09085,-0.002 -5.00285,0.67347 -3.24986,1.06011 -6.34533,1.64571 -9.73829,2.07281 -3.63381,0.49947 -5.92976,1.20937 -9.01471,3.25728 -2.99744,1.41499 -6.36575,1.48622 -9.62959,1.87234 -5.4572,0.79553 -11.64115,1.94137 -16.58239,4.39546 -10.73989,0.95444 -10.73989,0.95444 -14.74096,-0.97471 -2.16543,-1.85284 -3.54589,-3.7672 -5.13309,-6.13207 -11.21468,1.18971 -22.35334,2.37344 -33.38835,4.73786 -0.55581,0.11069 -1.11161,0.22138 -1.68425,0.33544 -1.76059,0.35077 -3.51614,0.7208 -5.27167,1.09579 -0.51602,0.10172 -1.03205,0.20344 -1.56372,0.30825 -2.54106,0.57026 -4.59369,1.16552 -6.81093,2.5675 -7.91417,4.92477 -16.26219,4.2242 -25.32813,4.07699 -2.76504,-0.0433 -5.52817,-0.0486 -8.29352,-0.048 -1.77832,-0.0116 -3.55664,-0.0254 -5.33493,-0.0416 -0.81588,-0.002 -1.63175,-0.006 -2.47234,-0.008 -5.37004,-0.10406 -11.71257,-0.33976 -16.10146,-3.79317 -3.93138,-4.35801 -4.48749,-9.15727 -4.40555,-14.7771 0.002,-0.58922 0.005,-1.17843 0.007,-1.7855 0.009,-1.86643 0.0288,-3.73255 0.049,-5.59889 0.008,-1.27186 0.0153,-2.54373 0.0218,-3.81559 0.0174,-3.10421 0.0449,-6.20816 0.0776,-9.31224 -5.70803,-1.5395 -9.73694,-1.0393 -14.96451,1.52376 -1.72997,0.84511 -1.72997,0.84511 -3.69253,1.59773 -2.09867,0.86217 -3.91223,1.90404 -5.83799,3.09689 -2.97318,1.80626 -5.96841,3.42738 -9.09857,4.94453 -2.67786,1.31803 -5.01541,2.76116 -7.2975,4.67925 -4.11625,3.09146 -8.35856,3.54159 -13.40567,3.4732 -3.45769,-0.58652 -5.52372,-2.46521 -7.71049,-5.10183 -1.60687,-3.19225 -1.35885,-6.81125 -0.79496,-10.26537 2.67615,-4.83022 7.18916,-7.65534 11.92442,-10.26537 0.6374,-0.399 1.27478,-0.79803 1.93151,-1.20914 2.0002,-1.13532 3.82564,-1.81175 6.0181,-2.49231 4.60279,-1.5956 8.4044,-3.99359 12.49579,-6.59167 3.86942,-2.30155 7.92044,-3.96299 12.148,-5.49974 0.72553,-0.29011 1.45105,-0.58022 2.19856,-0.87911 3.36951,-0.91758 6.49685,-0.96061 9.97428,-0.94695 z"
     fill="#000000"
     id="path6"
     style="stroke-width:0.792299" />
  <path
     d="m 414.21499,794.28156 c 1.7101,-0.0436 3.41947,-0.0721 5.12999,-0.0922 1.42338,-0.0168 1.42338,-0.0168 2.87552,-0.0339 6.67695,0.43575 10.10631,1.98978 14.6633,6.89395 0.45755,0.46926 0.91511,0.93851 1.38653,1.42197 3.24717,3.36602 4.33096,4.8191 4.30552,9.41713 -0.002,0.81431 -0.005,1.62863 -0.008,2.46763 -0.007,0.85301 -0.0133,1.70599 -0.0202,2.58485 -0.004,0.8591 -0.007,1.71822 -0.0109,2.60335 -0.009,2.12632 -0.0225,4.25256 -0.0388,6.37884 6.0265,-0.053 12.05261,-0.12388 18.07877,-0.20724 2.04945,-0.0262 4.09897,-0.0484 6.14852,-0.0663 2.94835,-0.0266 5.89619,-0.0679 8.84432,-0.11201 0.91439,-0.005 1.82876,-0.0101 2.77085,-0.0153 4.55773,-0.0829 7.90782,-0.23656 11.85519,-2.75772 2.77476,-0.93337 5.53166,-0.95329 8.44649,-1.08575 4.67064,-0.24721 9.16673,-0.87998 13.76272,-1.72735 8.48825,-1.52074 18.06246,-2.69657 26.28343,0.44416 1.05993,1.05287 2.11987,2.10573 3.17985,3.15859 2.05695,0 3.519,-0.56172 5.34421,-1.47443 4.67943,-2.31061 9.1767,-3.18565 14.29069,-3.99062 3.1645,-0.50497 6.13693,-1.1104 9.18242,-2.13526 3.05016,-1.0082 5.83286,-1.27437 9.04267,-1.43124 4.64716,-0.25555 7.43224,-1.29371 11.42759,-3.60275 4.29234,-1.41203 9.07206,-1.31138 13.51431,-0.78964 1.60327,1.30002 3.19369,2.61584 4.76977,3.94821 8.20018,1.39067 16.95323,-1.05968 24.51028,-4.14871 3.12385,-1.06786 6.39202,-1.60175 9.6327,-2.21469 2.74922,-0.84269 4.26955,-2.0081 6.40006,-3.90196 6.80671,-5.58947 14.3062,-6.56983 22.87685,-7.55713 2.56856,-0.25899 2.56856,-0.25899 4.94677,-1.12894 3.72945,-0.43043 6.44181,-0.35404 9.83763,1.33252 2.7341,2.39249 4.23466,4.43472 4.87227,8.03832 0.14147,7.21454 0.14147,7.21454 -2.23895,10.41959 -4.90023,4.69606 -12.06815,4.77439 -18.49215,5.24373 -2.63852,0.32074 -4.43512,1.23507 -6.69818,2.60335 -1.19015,0.66205 -2.3828,1.31976 -3.57733,1.97411 -0.56565,0.31758 -1.13132,0.63518 -1.71413,0.96238 -0.92227,0.50081 -0.92227,0.50081 -1.8632,1.01173 -0.72345,0.39902 -1.44695,0.79804 -2.19234,1.20914 -3.03812,1.36711 -5.98415,2.06103 -9.23522,2.73909 -3.36635,0.70966 -6.5134,1.44324 -9.71961,2.71439 -8.73733,3.34458 -17.72019,3.96292 -26.97085,3.82485 -1.69321,-0.025 -3.38578,-0.0324 -5.07913,-0.037 -4.36152,-0.0289 -8.50043,-0.10865 -12.78459,-0.97472 -2.44976,0.007 -4.86878,0.2842 -7.30369,0.54288 -1.01435,0.10525 -1.01435,0.10525 -2.04915,0.21264 -4.25881,0.49914 -7.95824,1.27421 -11.79436,3.26981 -1.85719,0.69402 -3.23667,0.87385 -5.19832,1.0364 -4.22554,0.39816 -7.94667,1.68 -11.91198,3.13082 -0.6794,0.24022 -1.35885,0.48045 -2.05883,0.72795 -3.8496,1.37446 -7.60643,2.88169 -11.35614,4.50344 -1.2328,0.47331 -1.2328,0.47331 -2.49049,0.9562 -4.63841,1.79244 -7.53282,3.37881 -11.02385,6.94023 -4.85168,2.48382 -10.53337,3.38837 -15.89923,2.36894 -2.76743,-1.58257 -4.92378,-3.46457 -6.35967,-6.31715 -0.076,-1.31432 -0.10322,-2.63174 -0.0994,-3.94822 -0.002,-0.70032 -0.004,-1.40063 -0.007,-2.12217 0.10558,-1.82604 0.10558,-1.82604 0.90055,-3.40533 -1.37535,0.0694 -2.74987,0.15481 -4.12387,0.24676 -1.14824,0.0687 -1.14824,0.0687 -2.31967,0.13881 -2.33311,0.25816 -2.33311,0.25816 -4.1452,1.5808 -2.4116,1.34938 -3.97534,1.56895 -6.72381,1.71985 -0.91281,0.0507 -1.82563,0.10143 -2.76611,0.15367 -9.18573,0.33443 -18.3729,0.38341 -27.5639,0.42815 -2.62922,0.0141 -5.25777,0.0419 -7.88673,0.0809 -3.20261,0.0476 -6.4046,0.0718 -9.60757,0.0795 -1.21138,0.007 -2.42274,0.0216 -3.63392,0.0448 -10.59018,0.19295 -10.59018,0.19295 -14.21904,-2.76427 -3.84955,-4.00098 -3.83588,-8.83814 -3.79431,-14.08113 0.13369,-1.84136 0.13369,-1.84136 0.53738,-3.34969 0.52616,-2.21916 0.46587,-4.30925 0.44096,-6.58552 -0.007,-0.85095 -0.0144,-1.70193 -0.0218,-2.57867 -0.009,-0.64739 -0.0184,-1.29477 -0.0279,-1.96178 -16.90146,-0.4551 -31.24227,1.50828 -47.20393,7.15615 -3.00278,1.06201 -5.99717,1.95927 -9.08304,2.75142 -5.09737,1.34212 -9.51721,3.40627 -13.6696,6.67495 -1.1053,2.75607 -1.1053,2.75607 -1.58992,5.52751 -2.03406,2.84872 -4.23355,4.44855 -7.67945,5.19746 -3.88603,0.2283 -6.73277,-0.0776 -9.85939,-2.48307 -2.96472,-3.02962 -3.93618,-5.93734 -3.9158,-10.18207 0.49546,-7.29464 3.32624,-11.4779 8.73527,-16.22163 2.44052,-1.76993 4.97924,-3.29884 7.60181,-4.78722 0.72431,-0.41136 1.44862,-0.82272 2.19487,-1.24654 7.15243,-3.87567 14.4306,-5.80522 22.31034,-7.65005 3.27939,-0.83674 6.44089,-1.96953 9.62842,-3.09611 12.12143,-4.14096 24.60346,-4.22765 37.30106,-4.59636 z"
     fill="#000000"
     id="path7"
     style="stroke-width:0.792299" />
  <path
     d="m 670.42228,722.8562 c 2.21775,0.50374 3.62353,0.26289 5.7945,-0.3763 1.18052,-0.78175 1.18052,-0.78175 2.38488,-1.57929 4.52436,-1.09916 9.26106,-1.25634 13.51435,0.78964 2.89854,2.05655 4.46836,4.14997 5.22935,7.62808 0.22653,3.71794 -0.006,6.59891 -2.34764,9.59602 -1.3446,1.277 -1.3446,1.277 -2.88171,2.51698 -0.53187,0.45806 -1.0637,0.91611 -1.61166,1.38804 -6.16366,4.50024 -12.58573,3.83751 -19.85231,3.34984 -0.9684,-0.0549 -1.93676,-0.10993 -2.93451,-0.16657 -6.21851,-0.43112 -6.21851,-0.43112 -8.19496,-1.41272 -8.86353,-0.8747 -16.27214,1.51542 -24.00718,5.63546 -1.43155,0.68169 -1.43155,0.68169 -4.3133,1.42197 -3.21885,1.00658 -4.92622,2.59129 -7.45274,4.78722 -4.70255,3.38884 -8.54879,3.73742 -14.30931,3.15857 -0.52466,-0.26058 -1.04933,-0.52116 -1.58991,-0.78965 -2.34212,-0.26869 -4.65603,-0.47815 -7.00559,-0.64157 -0.64202,-0.0606 -1.28401,-0.12114 -1.94548,-0.18353 -4.44511,-0.30014 -5.87592,0.30413 -9.33302,3.19405 -7.07794,3.18965 -14.97135,2.67993 -22.56307,2.591 -2.15058,-0.0249 -4.30074,-0.0324 -6.45147,-0.037 -1.36789,-0.007 -2.73578,-0.0154 -4.10368,-0.0246 -0.6425,-0.003 -1.28503,-0.007 -1.94703,-0.0102 -4.4963,-0.0576 -4.4963,-0.0576 -6.27276,-0.93987 -1.75505,-0.1693 -3.51069,-0.33293 -5.2666,-0.49353 -5.51094,-0.74748 -8.7844,-2.24115 -12.22251,-6.61326 -1.19245,-2.31958 -1.19245,-2.31958 -1.58993,-3.94822 -2.98032,1.41256 -5.84046,2.79519 -8.54583,4.68851 -3.15135,1.98652 -6.42908,3.23593 -9.88732,4.60831 -2.35059,0.92856 -2.35059,0.92856 -4.62073,2.64654 -2.43181,1.50972 -4.03276,1.9 -6.80686,2.46763 -4.0283,0.8616 -6.38546,2.21032 -9.6389,4.68851 -7.1892,4.7433 -17.36749,4.46508 -25.68717,3.01051 -2.2128,-1.14063 -3.80269,-2.19796 -5.56473,-3.94821 -1.23411,-0.24203 -2.47874,-0.43281 -3.72638,-0.59222 -4.16791,-0.7511 -7.17592,-2.34854 -9.78797,-5.72492 0,-0.78175 0,-1.5635 0,-2.36893 -0.61041,0.002 -1.22082,0.003 -1.84974,0.006 -5.75481,0.0158 -11.50959,0.0279 -17.26442,0.0356 -2.95853,0.004 -5.91707,0.01 -8.8756,0.0186 -2.85557,0.009 -5.7111,0.0132 -8.56668,0.0153 -1.08902,0.002 -2.17806,0.005 -3.26708,0.009 -1.52619,0.006 -3.0524,0.007 -4.57861,0.007 -0.86853,0.002 -1.73706,0.003 -2.63191,0.006 -1.96489,-0.0828 -3.55591,-0.35263 -5.43339,-0.8846 -1.19641,-0.0601 -2.3949,-0.0856 -3.59285,-0.0833 -1.02296,-0.0176 -1.02296,-0.0176 -2.06659,-0.0355 -1.41797,-0.0195 -2.83623,-0.0237 -4.25428,-0.0123 -4.61059,-0.11304 -7.12654,-0.95487 -10.50607,-4.10784 -2.60569,-3.21562 -2.69512,-6.82252 -2.63407,-10.7643 -9.76696,0.80447 -18.703,2.53953 -27.84343,6.1662 -5.183,1.95002 -10.07362,2.16466 -15.58132,2.17441 -0.86899,0.0289 -1.73798,0.0581 -2.63331,0.0879 -5.03878,0.0272 -8.10386,-0.39427 -11.77633,-3.94551 -2.49476,-3.32834 -2.72316,-6.48514 -2.23486,-10.50405 1.57117,-3.37102 3.59442,-5.49729 6.80685,-7.40291 3.24101,-0.92375 6.43314,-0.86736 9.78796,-0.93769 4.78784,-0.19773 8.70386,-1.07938 13.11687,-2.91181 9.79223,-4.00675 19.87457,-5.01519 30.40726,-5.13269 0.67089,-0.011 1.34179,-0.0221 2.033,-0.0335 5.7935,0.0442 11.51647,0.90003 16.15173,4.52464 2.6002,3.36549 4.02449,5.72716 4.02449,10.01861 5.65227,0.89935 11.28479,0.93079 16.99613,0.9711 1.7922,0.0131 3.58428,0.0314 5.37642,0.0513 5.09112,0.0555 10.18231,0.10331 15.27359,0.1438 3.12586,0.0252 6.25158,0.0578 9.37733,0.0949 1.184,0.0126 2.36804,0.0223 3.55208,0.0291 15.0514,0.0878 15.0514,0.0878 18.58296,3.32118 0.37813,0.54662 0.75625,1.09323 1.14585,1.65641 2.48927,3.1506 4.58385,4.18501 8.46199,5.12653 1.52471,0.44969 1.52471,0.44969 3.11463,2.02897 4.15609,-0.0809 6.18189,-1.19902 9.38427,-3.69529 2.27111,-1.35676 4.49981,-1.90701 7.06149,-2.5725 5.56428,-1.45078 10.30539,-3.67028 15.3527,-6.36651 1.60911,-0.78297 3.2224,-1.55629 4.83808,-2.32575 1.6618,-0.86983 1.6618,-0.86983 3.60528,-2.32574 3.32235,-2.06021 6.70007,-3.26151 10.38727,-4.52811 1.34562,-0.46807 2.69026,-0.93887 4.03379,-1.41273 0.58996,-0.20319 1.17988,-0.4064 1.78769,-0.61575 1.78767,-0.65807 1.78767,-0.65807 3.96645,-2.21585 4.27352,-0.99881 7.93259,-1.05277 11.92443,0.78964 2.25835,1.55263 3.55947,3.07992 4.76977,5.5275 0.19407,2.39091 0.19407,2.39091 0.12425,4.94144 -0.018,0.85007 -0.0361,1.70015 -0.0544,2.57598 -0.0344,0.96936 -0.0344,0.96936 -0.0699,1.95829 3.87514,0.0783 7.74982,0.13555 11.62556,0.1735 1.31697,0.0159 2.63393,0.0374 3.95074,0.0648 1.89849,0.0385 3.79628,0.0563 5.69514,0.0702 0.58398,0.0163 1.16796,0.0326 1.76968,0.0495 4.13703,0.002 6.30737,-1.04816 9.55231,-3.51642 2.4128,-0.91611 2.4128,-0.91611 4.81942,-1.62864 2.49484,-0.74312 4.53865,-1.41768 6.75406,-2.78843 3.17084,-1.81419 6.33374,-1.67382 9.89043,-1.11044 1.33421,1.04128 2.66007,2.09318 3.97481,3.15858 4.57595,0.0733 6.511,-0.77914 10.12026,-3.58733 8.32282,-5.30748 19.35404,-7.43581 28.83286,-9.83661 0.77982,-0.20561 1.55968,-0.41123 2.36315,-0.62307 7.11298,-1.67954 13.65423,-0.67572 20.46098,1.78906 z"
     fill="#000000"
     id="path8"
     style="stroke-width:0.792299" />
  <path
     d="m 378.10637,412.93962 c 2.53164,1.94546 4.43649,3.99895 5.12689,7.1654 0.0953,1.17188 0.17216,2.34533 0.23288,3.51947 0.50614,4.81419 2.30378,9.28638 5.32253,13.05381 6.12379,4.5992 13.46373,4.11503 20.80581,4.17532 1.16333,0.013 2.32659,0.0346 3.48961,0.0648 8.66146,0.36986 8.66146,0.36986 16.24041,-3.35908 4.6195,-3.44021 12.83245,-1.90999 18.29749,-1.61515 5.04176,0.79075 8.56518,4.75346 11.57042,8.58122 0.59933,1.80753 0.59933,1.80753 0.79495,3.15857 0.65585,-0.0977 1.3117,-0.19543 1.9874,-0.29611 3.12456,0.33253 3.19242,0.58811 5.24489,2.6527 4.72475,3.64423 10.51665,3.02929 16.21111,2.9122 1.93885,-0.0373 3.87422,-0.0325 5.81334,-0.0219 6.52669,-0.0247 11.84937,-0.45446 17.64597,-3.66753 6.54738,-1.821 15.15605,-1.78376 21.46396,0.78964 1.92719,1.6379 3.53239,3.32072 4.76977,5.52751 0,1.04233 0,2.08466 0,3.15857 3.84304,-0.0751 7.68574,-0.15917 11.52846,-0.25061 1.30108,-0.0298 2.60221,-0.0574 3.90337,-0.0825 7.78433,-0.15197 15.36933,-0.63046 23.08341,-1.68376 3.7285,-0.46498 7.41721,-0.57688 11.16982,-0.64814 5.27905,-0.1645 10.11411,-0.70931 15.20362,-2.12216 9.94137,-2.72963 9.94137,-2.72963 14.60741,-1.52994 0.72962,0.65247 1.45926,1.30495 2.21099,1.9772 2.89567,2.56775 5.46297,2.5217 9.21656,2.36583 0.5986,-0.0128 1.19719,-0.0258 1.81392,-0.0389 5.38617,-0.19858 9.24034,-1.29312 13.78722,-4.30408 1.08482,-0.35487 2.17923,-0.6816 3.2792,-0.98706 3.49717,-1.11498 6.1517,-2.76199 9.13895,-4.85199 2.01363,-1.34988 4.07288,-2.49714 6.21375,-3.63668 2.94272,-1.56825 5.86226,-3.16085 8.74454,-4.83657 0.62206,-0.36033 1.24407,-0.72068 1.88495,-1.09192 1.8163,-1.14311 1.8163,-1.14311 3.35063,-2.82854 2.55043,-2.44825 5.24781,-2.90522 8.72595,-3.08763 3.94001,0.55185 6.5441,1.86147 9.58923,4.3924 2.07156,3.65084 2.15151,6.51221 1.54023,10.61083 -2.53626,6.77063 -11.05295,11.42045 -17.28108,14.50044 -3.04852,1.51949 -6.02599,3.14297 -9.00235,4.79647 -0.55181,0.30181 -1.10365,0.60361 -1.6722,0.91456 -2.41903,1.34405 -4.59224,2.65149 -6.75251,4.39086 -2.008,1.57165 -3.71566,2.28988 -6.133,3.08454 -2.52533,0.85514 -4.9141,1.72695 -7.35339,2.81311 -5.56498,2.25205 -11.03392,2.90957 -17.00473,2.90255 -0.65095,0.003 -1.3019,0.007 -1.97259,0.0102 -1.36273,0.005 -2.72546,0.005 -4.08819,0.002 -2.08115,-0.002 -4.16144,0.0161 -6.24245,0.036 -1.33118,0.002 -2.66231,0.002 -3.99343,0.002 -0.61784,0.007 -1.23564,0.0146 -1.87217,0.022 -3.7227,-0.0316 -5.75276,-0.71868 -8.84742,-2.67793 -1.59971,0.177 -1.59971,0.177 -3.17984,0.78965 -1.44977,0.14865 -2.90268,0.26806 -4.35674,0.36706 -0.86132,0.0616 -1.72264,0.12317 -2.61003,0.18662 -1.77413,0.12165 -3.5483,0.24297 -5.32252,0.36397 -4.31846,0.30909 -8.59733,0.67792 -12.88762,1.2643 -9.10453,1.21242 -18.20561,1.32533 -27.38174,1.35604 -2.81376,0.0155 -5.62576,0.0648 -8.43907,0.11412 -1.80418,0.0103 -3.6084,0.0186 -5.41257,0.0246 -0.83311,0.0195 -1.66623,0.039 -2.52456,0.059 -4.85348,-0.0294 -7.60883,-0.64451 -11.1426,-4.03671 -1.46646,-1.8588 -2.1046,-3.72691 -2.59848,-6.01625 -0.8526,0.35831 -1.7052,0.71661 -2.58363,1.08576 -0.47959,0.20154 -0.95915,0.40308 -1.45328,0.61075 -1.53982,0.64793 -1.53982,0.64793 -2.97963,1.48976 -1.95978,0.86414 -3.32847,0.97148 -5.46567,0.99137 -0.73806,0.0101 -1.47612,0.0201 -2.23655,0.0306 -0.79331,0.002 -1.58661,0.004 -2.40396,0.006 -0.82361,0.006 -1.64722,0.0105 -2.4958,0.0159 -1.74405,0.008 -3.48812,0.0117 -5.23217,0.0114 -2.64861,0.003 -5.29615,0.0321 -7.94458,0.0621 -1.6986,0.005 -3.39721,0.008 -5.09581,0.009 -0.78367,0.0114 -1.56732,0.0226 -2.37473,0.0343 -6.92193,-0.0449 -12.24018,-1.8055 -17.76636,-5.92606 -1.36293,-0.34538 -2.73997,-0.63842 -4.12386,-0.88835 -5.33545,-1.31604 -8.36723,-4.43838 -11.77537,-8.58737 -0.26234,-0.52116 -0.52467,-1.04233 -0.79497,-1.57929 -1.97754,0.90662 -3.49519,1.83008 -5.21032,3.19404 -3.57088,2.0125 -6.2653,2.00065 -10.29761,1.96333 -0.73192,0.003 -1.46385,0.007 -2.21795,0.009 -1.55151,0.002 -3.10305,-0.004 -4.6545,-0.0169 -2.31715,-0.0167 -4.63224,-3e-4 -6.94932,0.02 -27.1838,0.0506 -27.1838,0.0506 -35.17684,-7.63926 -0.45403,-0.50424 -0.90806,-1.00848 -1.37584,-1.528 -0.51399,-0.52257 -1.02796,-1.04514 -1.55752,-1.58353 -4.82594,-5.06972 -8.4855,-10.35053 -9.67129,-17.31855 -3.6506,0.42166 -7.23359,1.07968 -10.83135,1.82606 -1.29426,0.26414 -1.29426,0.26414 -2.61467,0.53363 -2.73975,0.89221 -4.22389,2.13924 -6.42801,3.95747 -1.716,0.85331 -3.45691,1.65861 -5.21693,2.41828 -3.56065,1.51218 -3.56065,1.51218 -6.76339,3.62126 -3.05659,2.12653 -6.7345,1.65896 -10.2786,1.06724 -3.21589,-1.44427 -4.98909,-3.36004 -6.33795,-6.58858 -1.01146,-3.89842 -1.12966,-7.24126 0.59312,-10.93164 3.34019,-4.90279 8.47805,-6.82169 14.00187,-8.41772 2.22684,-0.81175 2.22684,-0.81175 3.88476,-2.8532 2.87895,-2.66304 5.50382,-3.19302 9.27248,-4.02841 1.36048,-0.32344 2.7206,-0.64835 4.08038,-0.97472 1.00105,-0.2359 1.00105,-0.2359 2.02234,-0.47656 1.68195,-0.4199 3.32144,-0.89333 4.97083,-1.42352 8.1578,-2.6092 17.39005,-3.95592 25.54432,-0.62925 z"
     fill="#000000"
     id="path9"
     style="stroke-width:0.792299" />
  <path
     d="m 686.39912,306.57835 c 2.78298,2.66859 3.69506,5.01348 3.92822,8.8403 -0.20946,3.97517 -1.38075,6.09495 -4.16732,8.88966 -2.63745,2.15828 -4.95902,1.89924 -8.30363,2.01729 -7.47067,0.38771 -13.2623,2.13525 -19.12877,6.86003 -1.50331,0.38619 -3.00891,0.76722 -4.52756,1.08884 -4.95725,1.32701 -9.58461,3.92925 -14.15399,6.21536 -5.02898,2.49765 -9.27626,2.37115 -14.80619,2.41829 -0.87716,0.0229 -1.75436,0.0458 -2.65813,0.0694 -5.03981,0.0386 -8.79193,-0.38521 -13.25951,-2.77803 -2.66367,-1.26065 -4.2935,-0.81541 -7.03686,0.0929 -4.87866,2.69397 -8.57196,5.73285 -11.56731,10.42577 -1.47771,1.81997 -3.06956,2.66629 -5.12684,3.78783 -7.63335,4.3834 -7.63335,4.3834 -14.70678,9.57442 -4.45052,3.31554 -8.92495,3.26932 -14.24722,3.18017 -0.778,-0.007 -1.55602,-0.0131 -2.35766,-0.0199 -1.7898,-0.0165 -3.57957,-0.0369 -5.36932,-0.0606 -3.39426,-0.0442 -6.78853,-0.0762 -10.18296,-0.10733 -6.6486,-0.063 -13.29702,-0.14229 -19.94542,-0.22653 -3.49165,-0.0441 -6.9833,-0.0835 -10.47499,-0.12192 -2.71017,-0.0307 -5.42026,-0.0647 -8.13036,-0.0997 -1.28935,-0.016 -2.57873,-0.0309 -3.86811,-0.0443 -1.78528,-0.019 -3.57042,-0.0428 -5.35562,-0.0676 -1.51927,-0.0184 -1.51927,-0.0184 -3.06926,-0.0372 -2.45742,-0.12494 -2.45742,-0.12494 -4.8423,-0.91459 -1.37631,-0.0723 -2.75497,-0.10392 -4.13317,-0.11105 -20.78317,-0.31902 -20.78317,-0.31902 -29.95391,-5.46494 -1.99423,-0.87656 -3.44365,-0.9446 -5.6202,-0.95534 -0.78015,-0.008 -1.56031,-0.0161 -2.36409,-0.0244 -0.83808,-0.002 -1.67615,-0.003 -2.53962,-0.006 -1.77934,-0.0199 -3.55869,-0.04 -5.33803,-0.0602 -2.80163,-0.0226 -5.60323,-0.0417 -8.40492,-0.0565 -2.70636,-0.0172 -5.41227,-0.0482 -8.11847,-0.0808 -1.25227,-1.3e-4 -1.25227,-1.3e-4 -2.52983,-2.7e-4 -4.31344,-0.0574 -7.63837,-0.16666 -11.28882,-2.71679 -1.19574,-1.59761 -1.19574,-1.59761 -2.21409,-3.27887 -2.06026,-2.45903 -3.06858,-2.99071 -6.2972,-3.53528 -3.63976,-0.17723 -7.27561,-0.0736 -10.91557,0.0528 -13.89211,0.4525 -13.89211,0.4525 -17.75309,-2.86863 -0.88541,-0.97593 -1.74466,-1.97629 -2.56809,-3.00436 -0.74193,-0.72983 -1.48386,-1.45966 -2.24826,-2.21162 -1.2927,-1.33168 -2.58448,-2.66422 -3.87543,-3.99757 -3.4953,-3.22983 -6.15057,-3.57956 -10.8034,-3.45777 -5.64451,0.50162 -9.80359,2.25138 -14.42419,5.47198 -3.79183,2.50386 -6.60443,3.41024 -11.16052,3.11848 -3.30209,-0.82762 -5.43381,-2.66408 -7.57076,-5.24064 -1.60987,-3.19822 -1.34274,-6.8036 -0.79495,-10.26537 3.84959,-7.56912 13.41562,-11.55885 21.06647,-14.16423 10.53056,-3.28069 23.72573,-3.21161 33.66473,1.89083 3.09166,2.20153 5.4559,5.10368 7.91234,7.96122 2.12519,2.3622 3.34904,3.44945 6.56521,3.74925 0.97948,0.0148 1.95896,0.0295 2.96811,0.0447 0.7928,0.0173 0.7928,0.0173 1.60163,0.035 1.69052,0.0366 3.38096,0.0636 5.0717,0.0884 17.71319,0.26228 17.71319,0.26228 22.90481,5.13268 0.60666,0.55375 1.21331,1.10748 1.83835,1.678 1.3415,1.48057 1.3415,1.48057 1.3415,3.05987 1.0022,-0.008 2.00441,-0.0166 3.03699,-0.025 3.73943,-0.0288 7.47885,-0.0468 11.21835,-0.0616 1.61452,-0.008 3.22902,-0.0186 4.84352,-0.0324 2.32862,-0.0193 4.6571,-0.0281 6.9858,-0.0351 1.07233,-0.0123 1.07233,-0.0123 2.16634,-0.0247 5.35336,-8e-4 10.65746,0.40221 15.27312,3.38685 3.54485,2.09915 6.18838,2.41783 10.2817,2.54166 1.30272,0.0443 1.30272,0.0443 2.63175,0.0895 0.90333,0.0275 1.80664,0.0549 2.73734,0.0833 1.78772,0.0545 3.57535,0.11205 5.36287,0.17273 0.79157,0.0239 1.58313,0.0478 2.39866,0.0725 2.22517,0.14956 2.22517,0.14956 3.93829,0.5389 2.95505,0.52302 5.88264,0.57917 8.87524,0.63762 0.6559,0.0154 1.31181,0.0309 1.98759,0.0468 6.83771,0.15486 13.67648,0.2657 20.51508,0.37314 3.2403,0.0523 6.47987,0.11808 9.71964,0.19587 3.92181,0.0941 7.84335,0.16427 11.76588,0.21769 1.48976,0.0243 2.97935,0.0566 4.4687,0.0977 11.14281,0.43452 11.14281,0.43452 20.45086,-5.11669 0.8835,-0.59204 1.77716,-1.16957 2.68298,-1.72735 2.03849,-1.30621 2.03849,-1.30621 3.37859,-2.7144 1.09308,-1.08576 1.09308,-1.08576 2.60535,-1.75202 1.95985,-1.07305 2.74999,-2.14594 4.00278,-3.97289 3.02514,-4.40275 6.89774,-6.82472 11.57663,-9.32767 0.87716,-0.47535 1.75435,-0.95071 2.65812,-1.44047 7.23939,-3.39079 15.81246,-2.71462 23.27749,-0.38557 5.55723,1.71845 11.45419,3.33707 16.93636,0.62308 1.19314,-0.80788 2.36389,-1.64944 3.509,-2.52316 3.33971,-2.45194 7.21864,-3.89076 11.1512,-5.14501 2.62976,-0.90007 5.05268,-2.01649 7.55525,-3.22028 8.87447,-4.07004 22.6506,-7.57098 31.34818,-1.33868 z"
     fill="#000000"
     id="path10"
     style="stroke-width:0.792299" />
  <path
     d="m 480.35824,153.73913 c 0.9356,-0.0163 1.87121,-0.0326 2.83516,-0.0494 5.10502,-0.0228 8.87643,0.13432 13.36218,2.61569 0.58309,0.29723 1.16617,0.59446 1.76693,0.90069 6.09438,3.65016 9.88633,7.93504 11.7474,14.89218 0.2965,2.49567 0.29941,4.94224 0.24844,7.45227 0.004,0.62753 0.005,1.25507 0.007,1.90162 -0.083,9.21057 -2.38398,14.56208 -8.65299,21.24479 -8.64023,6.42594 -21.1245,5.82605 -31.35128,4.93528 -1.45126,-1.44154 -0.8965,-3.71558 -0.89784,-5.65088 -0.002,-1.04081 -0.005,-2.08161 -0.008,-3.15395 0.002,-1.14487 0.003,-2.28976 0.005,-3.43464 -4.1e-4,-1.16544 -0.002,-2.33088 -0.002,-3.49632 -8.2e-4,-2.44555 4.1e-4,-4.89107 0.004,-7.3366 0.005,-3.14147 0.002,-6.28288 -0.003,-9.42434 -0.003,-2.40747 -0.002,-4.81492 1.1e-4,-7.22238 4.1e-4,-1.15863 -1.2e-4,-2.31726 -0.002,-3.47589 -0.002,-1.61663 0.002,-3.23325 0.006,-4.84987 8.2e-4,-0.92171 0.002,-1.84342 0.002,-2.79306 0.24022,-4.91852 7.11367,-3.03894 10.93245,-3.05524 z"
     fill="#0c0c0c"
     id="path11"
     style="stroke-width:0.792299" />
  <path
     d="m 545.44567,168.693 c 4.04455,2.40205 7.03218,5.53092 9.14206,9.7225 1.6905,6.75173 1.80344,14.32379 -1.58992,20.53073 -0.37812,0.7283 -0.37812,0.7283 -0.76389,1.47132 -2.62874,4.32411 -6.35156,6.54159 -11.16054,8.00439 -5.43186,0.73753 -10.59182,0.69549 -15.38684,-2.16225 -4.17593,-3.18243 -7.08622,-7.65518 -7.92106,-12.83923 -0.12218,-1.66999 -0.15829,-3.31207 -0.14343,-4.98635 0.004,-0.58811 0.007,-1.17619 0.0118,-1.78211 0.17889,-5.64014 1.65051,-10.00852 5.51852,-14.24212 1.17696,-1.05183 1.17696,-1.05183 3.61154,-2.68047 0.67224,-0.4723 1.34448,-0.94461 2.03706,-1.43123 5.29279,-1.81618 11.49612,-1.99687 16.6445,0.39482 z"
     fill="#101010"
     id="path12"
     style="stroke-width:0.792299" />
  <path
     d="m 451.19622,170.18901 c 2.14567,1.46806 3.48109,2.83969 4.81634,5.06792 0.45909,0.74917 0.91818,1.49834 1.39118,2.27022 2.37552,5.95772 1.85469,13.64587 -0.39748,19.54367 -2.54631,5.27662 -5.29064,8.10977 -10.64812,10.60158 -4.82227,1.5923 -10.15494,1.59929 -14.93969,-0.18816 -4.88124,-2.86958 -8.26657,-6.93961 -10.06123,-12.32275 -1.33517,-7.20504 -0.98451,-14.41094 3.03079,-20.61093 6.5682,-8.60839 17.68267,-9.53919 26.80821,-4.36155 z"
     fill="#101010"
     id="path13"
     style="stroke-width:0.792299" />
  <path
     d="m 476.68154,160.25369 c 15.49531,0 15.49531,0 21.59438,4.83965 4.26109,4.31363 4.83999,9.51082 4.98714,15.34562 -0.21516,6.84604 -1.27143,12.31024 -6.15163,17.36906 -6.03279,5.08324 -12.58727,3.50713 -20.42989,3.50713 0,-13.55027 0,-27.10055 0,-41.06146 z"
     fill="#fbfbfb"
     id="path14"
     style="stroke-width:0.792299" />
  <path
     d="m 541.07338,173.67764 c 3.20371,1.39572 4.36611,2.54373 6.26034,5.4288 1.77344,4.87336 1.91081,11.23661 0.2888,16.1445 -1.47196,2.66987 -3.3966,4.9327 -5.75418,6.85386 -4.56236,0.83924 -8.93018,0.94852 -12.81873,-1.67799 -4.12071,-6.27616 -4.74787,-11.4191 -3.87542,-18.85274 2.95855,-7.73541 8.11737,-8.70418 15.89919,-7.89643 z"
     fill="#f8f8f8"
     id="path15"
     style="stroke-width:0.792299" />
  <path
     d="m 444.08815,173.67764 c 3.06781,1.28722 4.95877,2.77491 6.4839,5.728 1.92795,6.23278 1.32622,13.10049 -1.50297,18.93293 -1.2564,1.74487 -2.30213,2.69649 -4.18598,3.76623 -4.68662,0.71345 -8.95865,0.99148 -12.86843,-1.82605 -3.84326,-5.66051 -4.36489,-10.34847 -3.82575,-17.12539 2.05043,-8.59593 7.66437,-10.8282 15.89923,-9.47572 z"
     fill="#f8f8f8"
     id="path16"
     style="stroke-width:0.792299" />
  <path
     d="m 388.84145,153.83437 c 1.14201,-0.004 1.14201,-0.004 2.30706,-0.008 0.82807,0.002 1.65614,0.003 2.50929,0.005 0.84396,-7.6e-4 1.6879,-0.001 2.55742,-0.002 1.78834,-5.4e-4 3.57669,9.8e-4 5.36503,0.004 2.74797,0.004 5.49585,4e-5 8.24383,-0.005 1.73277,5.3e-4 3.46553,0.001 5.1983,0.003 1.2421,-0.002 1.2421,-0.002 2.50929,-0.005 0.76133,0.003 1.52265,0.005 2.30706,0.008 0.67371,6.3e-4 1.34742,0.001 2.04155,0.002 1.53887,0.10028 1.53887,0.10028 2.33383,0.88992 0.0994,2.36893 0.0994,2.36893 0,4.73786 -0.26233,0.26059 -0.52467,0.52117 -0.79496,0.78965 -5.24674,0 -10.49349,0 -15.89922,0 0,15.63495 0,31.26989 0,47.37861 -2.09869,0 -4.19739,0 -6.35968,0 0,-15.63494 0,-31.26988 0,-47.37861 -5.24675,0 -10.49348,0 -15.89923,0 -0.79496,-0.78965 -0.79496,-0.78965 -0.89433,-3.15858 0.15425,-3.6774 1.11253,-3.25761 4.47476,-3.26074 z"
     fill="#090909"
     id="path17"
     style="stroke-width:0.792299" />
  <path
     d="m 581.95176,168.07301 c 1.51333,0.74894 2.97988,1.58986 4.43443,2.44605 0,1.56349 0,3.12699 0,4.73787 -1.89653,-0.45472 -3.70996,-0.96517 -5.56473,-1.57929 -1.3218,-0.11229 -2.64842,-0.17388 -3.97481,-0.19741 -0.68865,-0.0204 -1.37727,-0.0407 -2.08679,-0.0617 -1.93038,0.10805 -1.93038,0.10805 -3.30715,1.3356 -1.1136,1.2901 -1.1136,1.2901 -1.31353,3.21718 0.46113,2.68288 1.45708,3.43562 3.52763,5.18204 2.02994,0.87427 2.02994,0.87427 4.2232,1.48058 4.4576,1.4937 8.69468,3.65162 10.88107,7.99514 0.43964,3.57984 0.33988,6.37523 -1.19244,9.67313 -3.25488,3.55638 -5.97082,5.81423 -10.89036,6.44669 -4.69044,0.11689 -8.59742,0.0706 -12.56101,-2.69588 -1.58992,-1.57928 -1.58992,-1.57928 -1.68927,-4.04692 0.0328,-0.74918 0.0656,-1.49835 0.0994,-2.27022 1.99293,0.32992 3.67135,0.62436 5.45293,1.59469 2.00583,0.91259 3.47736,1.01101 5.67653,1.021 0.67223,0.0132 1.34447,0.0264 2.0371,0.0401 2.44665,-0.36221 3.47495,-0.80134 5.11755,-2.65578 0.26534,-2.86298 0.26534,-2.86298 0,-5.52752 -0.5891,-0.29191 -0.5891,-0.29191 -1.19015,-0.58972 -1.79448,-0.89605 -3.58126,-1.80628 -5.36828,-2.71691 -0.92689,-0.45881 -0.92689,-0.45881 -1.8725,-0.9269 -4.13343,-2.12309 -6.92001,-4.15292 -9.05822,-8.40077 -0.54743,-3.8839 -0.44579,-6.40355 1.68927,-9.77185 4.92782,-4.46921 10.50365,-6.1076 16.93018,-3.72921 z"
     fill="#101010"
     id="path18"
     style="stroke-width:0.792299" />
  <path
     d="m 429.77884,169.72941 c 0.52468,0.26059 1.04936,0.52117 1.58993,0.78965 -2.36104,2.34524 -4.72207,4.69049 -7.15466,7.1068 0,-3.40311 1.72288,-4.65691 3.97481,-7.1068 0.52467,-0.26059 1.04934,-0.52117 1.58992,-0.78965 z"
     fill="#343434"
     id="path19"
     style="stroke-width:0.792299" />
</svg>
