<?xml version="1.0" encoding="UTF-8" standalone="no"?>
<svg
   version="1.1"
   width="1024"
   height="1024"
   id="svg20"
   sodipodi:docname="todosvg.svg"
   inkscape:version="1.4.3 (0d15f75, 2025-12-25)"
   xmlns:inkscape="http://www.inkscape.org/namespaces/inkscape"
   xmlns:sodipodi="http://sodipodi.sourceforge.net/DTD/sodipodi-0.dtd"
   xmlns="http://www.w3.org/2000/svg"
   xmlns:svg="http://www.w3.org/2000/svg">
  <defs
     id="defs20" />
  <sodipodi:namedview
     id="namedview20"
     pagecolor="#000000"
     bordercolor="#000000"
     borderopacity="0.25"
     inkscape:showpageshadow="2"
     inkscape:pageopacity="0.0"
     inkscape:pagecheckerboard="true"
     inkscape:deskcolor="#ff85ff"
     inkscape:zoom="6.3325103"
     inkscape:cx="238.29413"
     inkscape:cy="944.41221"
     inkscape:window-width="1920"
     inkscape:window-height="991"
     inkscape:window-x="-9"
     inkscape:window-y="-9"
     inkscape:window-maximized="1"
     inkscape:current-layer="svg20"
     labelstyle="below" />
  <rect
     style="fill:#ffffff;stroke:#ffc4ff;stroke-opacity:0"
     id="rect1"
     width="1024"
     height="1024"
     x="0.69543421"
     y="8.9629076e-08" />
  <path
     id="rect107"
     style="fill:#ffffff;fill-opacity:1;stroke:#ffc4ff;stroke-width:1.00263;stroke-opacity:0"
     d="m 227.81836,169.56445 v 732.29493 c 0.58484,0.71365 1.04854,1.74076 1.26953,3.10156 0.22692,1.39725 0.4764,2.79222 0.83008,4.16406 0.55393,2.32063 1.07581,4.65673 1.26367,7.04102 0.01,0.0999 0.0199,0.20082 0.0293,0.30078 0.11272,0.40223 0.21961,0.80513 0.32031,1.21093 0.8754,2.90148 1.9512,5.74232 3.02539,8.57422 1.75616,4.4243 3.44193,8.87584 4.98633,13.37891 1.4676,4.34098 2.83347,8.71909 4.45117,13.00781 0.74838,1.93707 1.60113,3.81266 2.87109,5.47266 1.00617,1.54571 2.03855,3.07816 2.89063,4.71679 0.6265,1.29026 1.11111,2.64046 1.80273,3.9004 0.54575,1.27029 1.00524,2.57577 1.58399,3.83203 0.47622,1.2226 1.16004,2.32603 2.08594,3.26562 1.06979,1.12677 2.06034,2.31769 2.97265,3.57617 0.93576,1.14519 1.86117,2.29751 2.91406,3.33985 1.15036,1.10987 2.25581,2.26638 3.46485,3.31445 1.25733,1.23457 2.35463,2.58692 3.11133,4.19336 0.6999,1.52396 1.35036,3.07164 1.9375,4.64258 0.40273,1.01825 0.77813,2.04611 1.23437,3.04101 0.45911,0.98098 1.30854,1.72645 2.00977,2.53125 1.4251,1.38928 2.80539,2.82226 4.25976,4.18166 1.47623,1.2662 3.01468,2.4598 4.46485,3.7558 1.31918,1.1677 2.62954,2.3528 3.61718,3.8282 0.77435,0.995 1.43789,2.1316 2.50391,2.8476 1.37838,0.6645 2.87143,0.958 4.35547,1.3008 1.67955,0.4966 3.29388,1.1535 4.89062,1.8711 1.7082,0.7115 3.36977,1.5299 5.01954,2.3672 1.386,0.7229 2.82763,1.3441 4.29882,1.8711 1.04284,0.305 2.10091,0.5631 3.14258,0.873 0.0455,-0.022 0.0928,-0.033 0.13867,-0.035 0.11644,0 0.22744,0.053 0.29883,0.1679 0.56949,0.1795 1.13262,0.3793 1.6836,0.6153 0.62205,0.2664 1.15282,0.5692 1.59765,0.8945 h 417.17578 c 0.0776,-0.033 0.1613,-0.062 0.25196,-0.088 0.76931,-0.2152 1.5284,-0.4653 2.28711,-0.7148 0.20402,-0.4984 0.60631,-1.0328 1.25195,-1.5606 2.01748,-1.6492 4.30107,-2.9477 6.5625,-4.2304 2.52121,-1.2452 5.07265,-2.445 7.6875,-3.4825 1.86395,-0.695 3.77682,-1.2391 5.68359,-1.8007 1.83733,-0.4955 3.72909,-0.7111 5.6211,-0.8633 0.3117,-0.2255 0.61719,-0.461 0.91601,-0.7032 0.73168,-0.6276 1.40273,-1.3194 2.10156,-1.9824 0.59312,-0.5499 1.18466,-1.1014 1.76953,-1.6601 0.057,-0.054 0.11418,-0.1073 0.17188,-0.1602 1.0675,-1.0274 2.16943,-2.016 3.24805,-3.0332 0.62274,-0.7133 1.24524,-1.4292 1.83007,-2.1738 0.82561,-1.03139 1.44125,-2.1976 2.06446,-3.35549 0.81108,-1.47414 1.61579,-2.95269 2.4668,-4.40429 0.73229,-1.21754 1.52001,-2.40282 2.37304,-3.53907 0.68144,-0.88001 1.42133,-1.71249 2.20117,-2.50586 0.43948,-0.46184 0.92361,-0.8727 1.42188,-1.26757 0.55542,-1.10089 1.07987,-2.22345 1.78125,-3.24024 0.30099,-0.39188 0.99807,-1.16517 1.59375,-0.74219 0.22635,0.16073 0.3665,0.32851 0.45117,0.50586 0.50486,-0.49109 1.01231,-0.9785 1.52734,-1.45898 0.5098,-0.48879 1.04195,-0.95216 1.57422,-1.41602 0.22509,-0.19615 0.44299,-0.30784 0.64063,-0.35156 1.03342,-1.37704 2.04589,-2.76883 3.05273,-4.16601 0.0881,-0.25005 0.16097,-0.50781 0.21875,-0.77149 0.15638,-0.95489 0.24488,-1.9196 0.42188,-2.87109 0.16885,-0.9609 0.5622,-1.83393 1.08008,-2.65235 0.3448,-0.40227 1.11446,-1.48927 1.73242,-1.45117 0.29771,0.0184 0.56102,0.2001 0.84179,0.30078 0.057,0.0952 0.12389,0.18642 0.18555,0.2793 0.15203,-0.55402 0.31978,-1.10236 0.54492,-1.63281 0.38426,-0.87481 0.84256,-1.71069 1.36524,-2.50977 0.16026,-1.36324 0.39448,-2.71586 0.75195,-4.04687 0.33218,-0.98244 0.73871,-1.95381 1.24805,-2.82227 0.11048,-0.36142 0.22342,-0.72185 0.33789,-1.08203 0.37254,-1.12093 0.87218,-2.19353 1.4043,-3.24609 0.10932,-0.23792 0.22896,-0.46974 0.35351,-0.69922 0.13808,-0.53975 0.29176,-1.07407 0.45703,-1.60742 0.22055,-0.43702 0.49965,-1.11594 1.07617,-1.21094 0.004,-6.9e-4 0.009,-4.4e-4 0.0137,-0.002 0.0843,-0.54697 0.19641,-1.08919 0.35351,-1.62304 0.42868,-1.3854 0.97381,-2.73832 1.91602,-3.86328 0.0503,-0.0601 0.10169,-0.11786 0.15234,-0.17383 0.0558,-0.19741 0.1163,-0.39382 0.18555,-0.58789 0.22772,-0.58011 0.51059,-1.13815 0.81445,-1.68164 0.23802,-0.40534 0.41936,-0.83914 0.57617,-1.28125 0.20414,-0.52114 0.35513,-1.05837 0.51563,-1.59375 0.17185,-0.64765 0.37913,-1.2851 0.625,-1.90821 0.2263,-0.61007 0.44764,-1.22146 0.65039,-1.83984 0.1402,-0.48072 0.28665,-0.96004 0.4375,-1.4375 0.16262,-0.55153 0.32039,-1.10525 0.43945,-1.66797 0.10392,-0.56985 0.18993,-1.1423 0.31055,-1.70898 0.11416,-0.515 0.18192,-1.03941 0.29492,-1.55469 0.11441,-0.53264 0.20876,-1.06822 0.32031,-1.60156 0.14817,-0.73735 0.3693,-1.45191 0.64063,-2.15235 0.22016,-0.57376 0.43806,-1.14691 0.6582,-1.7207 0.19437,-0.89267 0.3895,-1.78508 0.58399,-2.67773 0.17569,-0.86492 0.37291,-1.72526 0.58398,-2.58204 0.006,-0.58764 0.008,-1.17599 0.01,-1.76367 0.002,-0.882 -0.0161,-1.76287 0.0547,-2.64258 0.0968,-0.87652 0.21892,-1.75108 0.33789,-2.625 0.11319,-0.82219 0.27371,-1.63327 0.49219,-2.43359 0.18734,-0.62023 0.37611,-1.2401 0.56641,-1.85937 0.17681,-0.47479 0.34555,-0.95048 0.53125,-1.42188 0.14794,-0.38421 0.21966,-0.78737 0.25586,-1.19531 0.0443,-0.9694 0.13475,-1.93425 0.22265,-2.90039 0.0701,-0.90073 0.12721,-1.8028 0.22461,-2.70117 0.12187,-0.87867 0.30535,-1.74831 0.51758,-2.60938 0.17006,-0.66376 0.43149,-1.29788 0.71484,-1.91992 0.065,-0.1302 0.4227,-0.82988 0.58008,-0.83594 h 0.002 0.002 l 0.002,0.002 h 0.002 c 0.23184,0.025 0.41481,0.0423 0.56055,0.0586 V 169.56445 Z m 590.20117,730.17188 c -0.0366,0.17764 -0.0731,0.3555 -0.10937,0.5332 0.0341,-0.0239 0.0702,-0.043 0.10937,-0.0547 z m -0.10937,1.63476 v 0.002 0.002 l 0.002,0.002 c 0.0216,0.0316 0.0487,0.0593 0.0742,0.0879 -0.005,-0.0147 -0.0119,-0.0285 -0.0176,-0.043 v -0.002 c -0.0104,-0.0169 -0.0436,-0.0428 -0.0547,-0.0469 h -0.002 v -0.002 z m -0.97852,6.4336 c -0.0427,0.35595 -0.0877,0.71078 -0.13281,1.0664 0.0434,-0.0245 0.0882,-0.0429 0.13281,-0.0566 10e-6,-0.0483 -10e-6,-0.0962 0,-0.14453 5e-5,-0.28871 9e-5,-0.57684 0,-0.86523 z m -0.97656,10.83593 c -0.11059,0.0614 -0.20469,0.11304 -0.28516,0.15821 0.0793,-0.002 0.15973,-0.005 0.23828,-0.004 0.0156,-0.0519 0.0309,-0.10276 0.0469,-0.1543 z m -0.3711,0.0469 v 0.002 c -0.0148,0.006 -0.0667,0.0523 -0.12304,0.10938 0.0138,7.9e-4 0.0291,0.002 0.043,0.002 0.0331,-0.0255 0.0596,-0.06 0.0801,-0.10351 l 0.002,-0.002 v -0.002 -0.002 -0.002 -0.002 z m -0.39257,1.03711 v 0.002 l -0.002,0.002 c -7.5e-4,0.002 -0.003,0.009 -0.004,0.0117 l -0.002,0.002 v 0.002 c -4e-5,9.1e-4 -6e-5,0.005 0,0.006 v 0.002 l 0.002,0.002 c 0.008,0.0148 0.0143,0.0308 0.0215,0.0469 -0.004,-0.025 -0.007,-0.0513 -0.0117,-0.0762 h -0.002 z m -0.97461,4.07227 c -0.003,0.0643 -0.005,0.13115 -0.008,0.19531 0.0184,-0.0373 0.0369,-0.0734 0.0547,-0.10938 -0.0147,-0.0275 -0.0317,-0.0581 -0.0469,-0.0859 z m -1.55469,1.34179 c -0.0226,0.10275 -0.0459,0.21606 -0.0684,0.31836 0.0157,-6.5e-4 0.0328,-0.002 0.0488,-0.002 0.007,-0.10183 0.0134,-0.21407 0.0195,-0.31641 z m -0.98633,4.69531 c -0.10159,0.47601 -0.20335,0.9524 -0.30664,1.42774 0.13435,-0.43958 0.26363,-0.88045 0.39063,-1.32227 -0.0284,-0.0342 -0.0562,-0.0697 -0.084,-0.10547 z m 6.34375,0.76368 c -0.0381,0.4505 -0.0755,0.9011 -0.11328,1.35156 0.0403,0.0156 0.0775,0.035 0.11328,0.0566 z m -569.85547,44.80273 c 0.0664,0.14854 0.1326,0.29675 0.19922,0.44531 0.0371,0.0218 0.074,0.0437 0.11133,0.0664 -0.10672,-0.1689 -0.20983,-0.33905 -0.31055,-0.51172 z m 533.94141,10.50195 c -0.22892,0.18966 -0.46142,0.3743 -0.69922,0.55274 -0.37725,0.77802 -0.74449,1.56022 -1.10156,2.34765 0.53876,-0.70042 1.07357,-1.40327 1.60351,-2.10937 0.0586,-0.23222 0.12694,-0.50566 0.19727,-0.79102 z m -3.69531,3.49024 c -0.20887,0.24797 -0.41231,0.49959 -0.61133,0.75586 -0.8201,1.09015 -1.5749,2.22837 -2.2793,3.39648 -0.61087,1.04098 -1.19547,2.09656 -1.77734,3.1543 1.08433,-1.249 2.14601,-2.51495 3.20508,-3.78516 0.46406,-1.18284 0.95264,-2.3569 1.46289,-3.52148 z m -536.63282,21.29102 c -0.0276,0.1898 -0.0572,0.3765 -0.0898,0.5625 0.048,-0.084 0.0976,-0.1792 0.15234,-0.293 0.005,-0.011 0.0104,-0.022 0.0156,-0.033 -0.0258,-0.079 -0.0519,-0.1572 -0.0781,-0.2363 z m -5.45898,6.4941 c -0.003,0.019 -0.006,0.039 -0.01,0.059 0.0113,-0.01 0.0217,-0.015 0.0332,-0.023 z m 30.30469,1.6895 c -8.1e-4,0.01 -0.002,0.02 -0.004,0.031 h 0.002 0.002 0.002 0.002 0.002 0.002 0.002 0.002 0.002 0.002 0.002 0.002 0.002 0.002 0.002 0.002 0.002 c -0.0101,-0.01 -0.0189,-0.022 -0.0293,-0.031 z m 9.33984,4.0273 c -0.0805,0.01 -0.16472,0.015 -0.25195,0.018 -0.28526,0.01 -0.57055,0.016 -0.85547,0.033 -0.23892,0.016 -0.4767,0.035 -0.71485,0.059 h 2.16016 c -0.11327,-0.035 -0.22562,-0.072 -0.33789,-0.1094 z m 536.6582,0.1035 c 10e-5,0 2e-4,-2e-4 0,0.01 h 0.008 v -0 c 3.3e-4,-0 0.001,-0 0.002,-0.01 h -0.002 -0.002 -0.002 -0.002 z" />
  <path
     d="m 331.95872,4.6190491 c 1.69639,-0.00346 3.39277,-0.00823 5.08915,-0.014182 4.6339,-0.012465 9.26762,-0.00636 13.90151,0.00296 5.00828,0.00681 10.01653,-0.0037 15.0248,-0.01194 9.80058,-0.01332 19.60109,-0.010467 29.40168,-0.00176 7.96776,0.00678 15.9355,0.00769 23.90327,0.00443 1.13529,-4.597e-4 2.27058,-9.194e-4 3.44028,-0.00139 2.30656,-9.592e-4 4.61311,-0.00193 6.91966,-0.00292 21.61469,-0.00855 43.22933,0.00127 64.84401,0.017401 18.53243,0.013401 37.06481,0.011076 55.59724,-0.00276 21.53735,-0.016068 43.07467,-0.022368 64.61202,-0.013163 2.29824,9.556e-4 4.59647,0.0019 6.89471,0.00283 1.13068,4.628e-4 2.26136,9.257e-4 3.4263,0.0014 7.95448,0.00259 15.90894,-0.00177 23.86341,-0.00884 9.69925,-0.00843 19.39842,-0.00611 29.09766,0.00984 4.94541,0.00786 9.8907,0.011005 14.83611,0.00105 4.5332,-0.00898 9.06618,-0.00395 13.59936,0.011933 1.63378,0.00333 3.26757,0.00169 4.90134,-0.00563 23.57268,-0.097417 41.34819,7.5609 58.21611,23.829186 C 803.17743,64.394011 815,117.14987 815,165 c -193.38,0 -386.76,0 -586,0 0,-9.17353 0.14687,-17.8321 1.1875,-26.875 0.13164,-1.15476 0.26329,-2.30952 0.39892,-3.49927 C 232.67963,117.34788 236.25051,100.43453 242,84 c 0.21205,-0.632446 0.4241,-1.264893 0.64257,-1.916504 C 247.79075,66.765743 255.04208,51.783502 265,39 c 0.6355,-0.836602 1.27101,-1.673203 1.92578,-2.535156 C 283.98385,14.50465 304.29757,4.4953502 331.95872,4.6190491 Z"
     fill="#fefefe"
     id="path3" />
  <path
     d="m 768.8125,656.1875 c 5.82829,4.82915 5.82829,4.82915 6.64453,9.33594 0.29165,4.95133 0.10453,8.53528 -3.08203,12.47656 -5.41063,5.24743 -10.32732,6.34306 -17.69141,6.59375 -2.75674,0.23157 -2.75674,0.23157 -5.00757,1.89038 -2.94934,1.6707 -4.81816,1.97798 -8.17602,2.17603 -1.56887,0.10526 -1.56887,0.10526 -3.16943,0.21264 -1.09909,0.0626 -2.19818,0.1252 -3.33057,0.1897 -2.26325,0.1556 -4.52627,0.31442 -6.78906,0.47656 -1.07927,0.0764 -2.15854,0.15276 -3.27051,0.23145 C 719.56114,690.19035 714.29119,690.92953 709,692 c -0.93328,0.18047 -1.86656,0.36094 -2.82813,0.54687 -6.4193,1.47035 -11.04736,4.12335 -16.46484,7.8125 -3.41172,2.06772 -6.73381,3.04618 -10.57422,4.02735 -2.29138,0.55303 -2.29138,0.55303 -4.63281,2.17578 -3.26021,1.87462 -6.40341,2.26605 -10.09766,2.8125 -2.4681,0.45097 -2.4681,0.45097 -4.16406,2.16406 -3.46548,2.26194 -6.93958,1.81948 -10.98828,1.83594 -7.18154,0.18899 -11.57386,0.89488 -17.25,5.625 -2.45123,1.22562 -4.08836,1.14656 -6.82935,1.177 -1.50715,0.0192 -1.50715,0.0192 -3.04475,0.0389 -1.08955,0.007 -2.17911,0.0148 -3.30168,0.0224 -1.11731,0.008 -2.23462,0.0161 -3.38579,0.0245 -2.36805,0.0138 -4.73612,0.0246 -7.1042,0.0324 -3.62156,0.0172 -7.24221,0.0611 -10.86353,0.10523 -2.29882,0.0101 -4.59765,0.0186 -6.89648,0.0254 -1.08348,0.0175 -2.16697,0.035 -3.28328,0.0531 -5.8985,-0.017 -8.87619,-0.2411 -13.29094,-4.47884 -2.17441,-0.328 -2.17441,-0.328 -4.30859,0.15234 -1.17152,0.19119 -1.17152,0.19119 -2.3667,0.38624 -0.76716,0.15227 -1.53431,0.30454 -2.32471,0.46142 -0.6679,0.1252 -1.33579,0.2504 -2.02393,0.3794 -1.31752,0.2532 -2.63392,0.51231 -3.94921,0.77685 -8.20141,1.59466 -16.30131,2.22024 -24.65186,2.34375 -1.00684,0.0304 -2.01368,0.0607 -3.05103,0.092 -6.70022,0.004 -11.16539,-1.22108 -16.32397,-5.59204 -2.5,-2.8125 -2.5,-2.8125 -4,-5 -4.42149,0.63643 -8.48815,1.74133 -12.75,3.0625 -8.87032,2.49618 -20.15303,4.47119 -28.91016,0.83203 -3.448,-2.64087 -4.24455,-4.50067 -5.27734,-8.76953 -0.0309,-1.54687 -0.0309,-1.54687 -0.0625,-3.125 -7.77031,0.28001 -14.53278,1.5783 -21.90625,4.02734 -3.5323,1.11054 -7.03166,1.76473 -10.67187,2.40235 -2.61923,0.61678 -4.83989,1.60416 -7.29688,2.69531 -5.43923,2.05724 -10.61962,2.38182 -16.375,2.5 -0.85191,0.035 -1.70382,0.0699 -2.58154,0.10596 -5.6182,-0.01 -8.77461,-1.13572 -12.81983,-5.08496 -1.69713,-2.07134 -2.66426,-4.06058 -3.34863,-6.646 -2.60682,0.4034 -5.20962,0.82243 -7.8125,1.25 -0.71865,0.10957 -1.4373,0.21914 -2.17773,0.33203 -4.3532,0.72873 -8.19088,1.83214 -12.28711,3.48828 -6.18492,2.33601 -11.91146,2.59426 -18.47266,2.55469 -1.0841,0.0322 -2.1682,0.0644 -3.28516,0.0977 -6.33031,0.008 -10.13061,-0.60011 -14.71777,-5.10864 -3.25236,-4.20936 -3.40708,-8.29125 -2.77832,-13.34448 0.14599,-1.20306 0.14599,-1.20306 0.29492,-2.43042 0.11698,-0.91036 0.11698,-0.91036 0.23633,-1.83912 -4.54161,-0.0582 -9.08313,-0.0937 -13.625,-0.125 -1.2852,-0.0168 -2.57039,-0.0335 -3.89453,-0.0508 -1.24395,-0.006 -2.48789,-0.0129 -3.76953,-0.0195 -1.14163,-0.0105 -2.28325,-0.0209 -3.45948,-0.0317 -3.41216,0.23828 -6.06045,1.02925 -9.25146,2.22706 -8.46691,2.49843 -20.18389,4.39331 -28.58203,0.9375 -3.70072,-2.86709 -5.5537,-6.32891 -6.32422,-10.92579 -0.19541,-4.19325 0.62449,-7.29464 3.14844,-10.67578 C 267.44456,663.08179 273.96217,662.25079 281,661 c 1.85478,-0.37195 3.70902,-0.74663 5.5625,-1.125 0.76441,-0.14696 1.52883,-0.29391 2.31641,-0.44532 1.34167,-0.27179 2.67649,-0.58275 3.99621,-0.94647 2.15016,-0.48896 4.04227,-0.6229 6.24402,-0.64435 1.20276,-0.0144 1.20276,-0.0144 2.42981,-0.0291 0.86041,-0.004 1.72082,-0.009 2.6073,-0.0129 0.89811,-0.006 1.79623,-0.0114 2.72156,-0.0173 1.90302,-0.009 3.80606,-0.016 5.7091,-0.0198 2.87498,-0.01 5.74922,-0.0406 8.62403,-0.0723 25.18055,-0.14911 25.18055,-0.14911 34.36328,8.6914 2.35161,2.67376 2.64144,4.77765 2.98828,8.2461 0.0838,0.81726 0.16758,1.63453 0.25391,2.47656 0.0606,0.62648 0.12117,1.25297 0.18359,1.89844 1.01063,-0.43313 2.02125,-0.86625 3.0625,-1.3125 4.70156,-1.78509 9.50563,-2.63865 14.43677,-3.56177 4.05623,-0.78003 7.73934,-1.8116 11.55542,-3.3562 6.9774,-2.76014 13.26707,-4.68401 20.70703,-2.76172 3.79237,1.68109 6.4725,4.23092 8.23828,7.99219 0.14844,3.23437 0.14844,3.23437 0,6 0.83402,-0.19336 1.66805,-0.38672 2.52734,-0.58594 1.12536,-0.26039 2.25071,-0.52078 3.41016,-0.78906 1.1898,-0.27586 2.37961,-0.55172 3.60547,-0.83594 2.73143,-0.62345 5.4652,-1.2144 8.20703,-1.78906 3.77026,-0.82561 7.34559,-2.01226 10.98828,-3.27735 2.96964,-0.94885 5.96738,-1.591 9.02344,-2.19531 2.3693,-0.51085 2.3693,-0.51085 5.07812,-1.57031 7.7132,-2.33589 17.6812,-2.02875 25.16016,1.04297 2.46578,2.0619 4.4922,4.15003 6,7 0.15625,2.73046 0.15625,2.73046 0,5 1.17756,-0.30745 1.17756,-0.30745 2.37891,-0.6211 C 505.28981,680.32445 519.148,677.21761 531,682 c 2.38906,2.08593 4.38941,4.26078 6,7 0,0.99 0,1.98 0,3 10.36991,-1.22619 20.59686,-2.56987 30.625,-5.5625 0.7031,-0.20972 1.40621,-0.41943 2.13062,-0.6355 3.11754,-0.97817 5.5049,-1.97568 8.24438,-3.802 4.95088,-1.38165 9.35828,-1.21035 14,1 2.36935,2.08823 4.32927,4.3167 6,7 0,0.66 0,1.32 0,2 15.82038,0.97992 15.82038,0.97992 29.5625,-5.375 1.11568,-1.18723 1.11568,-1.18723 2.25391,-2.39844 3.26028,-3.32445 6.44077,-5.00724 11.07031,-5.58985 0.92426,0.0168 1.84851,0.0335 2.80078,0.0508 0.93199,0.004 1.86398,0.008 2.82422,0.0117 C 649,679 649,679 652,681 c 6.47762,0.31857 12.17231,-1.08616 17.92969,-3.96485 C 672,676 672,676 674.46875,675.05078 c 2.60542,-1.08157 4.78872,-2.39758 7.15625,-3.92578 15.05897,-9.03538 32.88857,-10.40909 50.1582,-10.65894 4.86679,-0.13155 7.86327,-1.11682 12.2168,-3.46606 7.63478,-1.79135 17.3402,-3.96747 24.8125,-0.8125 z"
     fill="#000000"
     id="path4" />
  <path
     d="m 326.41429,0.49205667 c 1.74589,-0.004615 3.49177,-0.0109709 5.23765,-0.0189052 4.77076,-0.0166217 9.5412,-0.008476 14.31196,0.003944 5.15553,0.009074 10.311,-0.004931 15.46652,-0.0159165 10.08936,-0.0177591 20.1786,-0.0139523 30.26796,-0.002349 8.20232,0.009041 16.40461,0.0102523 24.60693,0.005904 1.1686,-6.1281e-4 2.3372,-0.001226 3.54121,-0.001857 2.3742,-0.001279 4.7484,-0.002575 7.1226,-0.003889 22.24991,-0.011397 44.49976,0.001698 66.74967,0.0231968 19.07822,0.0178644 38.15635,0.014765 57.23458,-0.003674 22.17021,-0.0214179 44.34036,-0.0298187 66.51058,-0.0175475 2.36564,0.001274 4.73128,0.002531 7.09692,0.003771 1.74577,9.2546e-4 1.74577,9.2546e-4 3.52681,0.00187 8.18893,0.003448 16.37782,-0.002366 24.56674,-0.0117858 9.98472,-0.0112341 19.96933,-0.008144 29.95404,0.0131204 5.09126,0.0104865 10.18231,0.0146667 15.27357,0.001403 4.66649,-0.0119728 9.33259,-0.005276 13.99905,0.015907 1.68223,0.004443 3.36449,0.002249 5.04669,-0.007501 23.64921,-0.12648625 40.82905,9.45117483 57.31051,25.72801913 2.03257,2.190988 3.90995,4.441854 5.76172,6.7877 0.7657,0.967892 1.5314,1.935782 2.32031,2.933004 22.47918,29.443735 32.93946,66.684969 36.67969,103.045719 0.087,0.80567 0.17405,1.61134 0.26372,2.44142 0.71278,7.06802 0.87886,14.05695 0.86771,21.15734 0.003,1.84309 0.003,1.84309 0.006,3.72341 0.005,3.39499 0.005,6.78993 0.003,10.18492 -7.4e-4,3.69972 0.004,7.39942 0.009,11.09913 0.008,7.33114 0.01,14.66227 0.0103,21.9934 9.2e-4,8.78461 0.008,17.56921 0.0144,26.3538 0.016,21.2314 0.022,42.4628 0.0267,63.69421 0.002,10.05077 0.006,20.10155 0.01,30.15232 0.0128,34.42737 0.0236,68.85475 0.027,103.28213 2.2e-4,2.16026 4.4e-4,4.32053 6.6e-4,6.48079 2.2e-4,2.16539 4.4e-4,4.33078 6.6e-4,6.49617 4.5e-4,4.34391 8.9e-4,8.68782 10e-4,13.03173 1.1e-4,1.07703 2.2e-4,2.15406 3.3e-4,3.26374 0.004,34.90156 0.0195,69.80311 0.0429,104.70467 0.0246,36.92827 0.0383,73.85654 0.0395,110.78482 1.8e-4,4.05831 3.9e-4,8.11663 6.4e-4,12.17494 5e-5,0.99921 1.1e-4,1.99843 1.7e-4,3.02793 10e-4,16.04276 0.0122,32.0855 0.0267,48.12825 0.0144,16.14366 0.0176,32.2873 0.01,48.43097 -0.004,9.57526 -6.8e-4,19.15043 0.0152,28.72568 0.01,6.41538 0.009,12.83071 -10e-4,19.2461 -0.005,3.64271 -0.006,7.28524 0.007,10.92794 0.18056,55.03173 -10.456,112.90966 -50.31783,153.5709 -16.17826,16.0528 -33.86513,22.2186 -56.26715,22.14 -1.73535,0 -3.4707,0.011 -5.20603,0.019 -4.7463,0.016 -9.49244,0.014 -14.23876,0.01 -5.12763,0 -10.25522,0.012 -15.38283,0.024 -10.03734,0.021 -20.07462,0.026 -30.11197,0.024 -8.16133,0 -16.32264,0 -24.48396,0.01 -2.3532,0 -4.7064,0 -7.05959,0.01 -1.17136,10e-4 -2.34271,0 -3.54956,0 -22.14122,0.019 -44.28241,0.018 -66.42364,0.011 -20.23915,-0.01 -40.47817,0.015 -60.71729,0.048 -20.79831,0.034 -41.59656,0.049 -62.39489,0.044 -11.66992,0 -23.33972,0 -35.00962,0.028 -9.93566,0.021 -19.87115,0.025 -29.80682,0.01 -5.06522,-0.01 -10.13011,-0.01 -15.1953,0.01 -4.64512,0.019 -9.28963,0.014 -13.93472,-0.01 -1.67221,0 -3.34446,-10e-5 -5.01661,0.014 -21.90363,0.1665 -38.69705,-8.2637 -54.23251,-23.4766 -36.80022,-37.52451 -46.5575,-94.54288 -46.42286,-144.84662 0.007,-3.80981 -0.004,-7.61958 -0.0124,-11.42938 -0.0123,-6.65424 -0.0136,-13.3084 -0.007,-19.96265 0.009,-9.89575 0.001,-19.79144 -0.0103,-29.68719 -0.0196,-17.6813 -0.022,-35.36257 -0.0168,-53.04387 0.005,-15.47557 0.004,-30.95112 -0.002,-46.4267 -7.5e-4,-2.08018 -0.002,-4.16036 -0.002,-6.24054 -10e-4,-3.13511 -0.002,-6.2702 -0.003,-9.40529 -0.0107,-29.1256 -0.0154,-58.25119 -0.008,-87.3768 2.9e-4,-1.09662 5.9e-4,-2.19324 9e-4,-3.32309 0.002,-8.9039 0.005,-17.80781 0.008,-26.71171 0.0101,-34.72462 0.002,-69.44919 -0.0215,-104.1738 -0.0261,-39.06354 -0.0389,-78.12704 -0.0318,-117.19059 7.2e-4,-4.16931 0.001,-8.33864 0.002,-12.50796 2.6e-4,-1.53975 2.6e-4,-1.53975 5.2e-4,-3.11061 0.002,-15.45878 -0.006,-30.91754 -0.0188,-46.37631 -0.0149,-17.59068 -0.0157,-35.1813 0.002,-52.77198 0.01,-9.82857 0.008,-19.65699 -0.009,-29.48556 -0.0106,-6.58382 -0.006,-13.16753 0.009,-19.75133 0.009,-3.73873 0.0112,-7.47717 -0.004,-11.21589 C 224.28561,114.63974 236.24725,59.643589 273.0625,21.683237 288.49107,6.7729547 305.22581,0.36942763 326.41429,0.49205667 Z M 265.33203,37.820622 C 243.79606,67.106542 234.03766,103.31601 230,138.97219 c -0.13149,1.14704 -0.26297,2.29408 -0.39844,3.47587 -0.7387,7.56518 -0.60156,14.84973 -0.60156,22.51891 193.38,0 386.76,0 586,0 0,-10.74018 -0.2549,-20.64893 -1.6875,-31.18124 -0.089,-0.66702 -0.17795,-1.33403 -0.26962,-2.02125 C 808.24872,96.097151 797.08787,57.966767 771.44531,31.544538 769,28.994269 769,28.994269 767.08594,26.471337 764.56264,23.476121 761.68619,21.287994 758.5,19.058764 757.88197,18.625 757.26395,18.191237 756.6272,17.74433 741.48141,7.3262947 727.01007,4.5383699 708.93448,4.6114841 c -1.69583,-0.00418 -3.39165,-0.00966 -5.08747,-0.016317 -4.62777,-0.014378 -9.25537,-0.010231 -13.88315,-0.00283 -5.00353,0.00475 -10.00702,-0.00779 -15.01054,-0.018013 -9.78975,-0.017159 -19.57943,-0.018029 -29.36919,-0.012784 -7.96009,0.00405 -15.92017,0.00259 -23.88026,-0.00275 -1.13458,-7.483e-4 -2.26917,-0.0015 -3.43813,-0.00227 -2.30518,-0.00153 -4.61036,-0.00307 -6.91554,-0.00462 -21.59853,-0.013713 -43.19703,-0.00829 -64.79556,0.00319 -19.74108,0.00993 -39.48207,-0.00301 -59.22313,-0.026929 -20.29213,-0.024402 -40.58421,-0.033988 -60.87635,-0.027341 -11.38371,0.00349 -22.76734,0.00128 -34.15104,-0.016248 -9.69039,-0.014739 -19.38066,-0.015328 -29.07106,0.00207 -4.93962,0.0085 -9.87903,0.010692 -14.81864,-0.00465 -4.53025,-0.013897 -9.06009,-0.00902 -13.59031,0.010237 -1.63042,0.00374 -3.26087,8.837e-4 -4.89125,-0.00961 C 302.01546,4.3158514 282.53511,16.369715 265.33203,37.820618 Z M 229,169.96597 c -0.0861,121.57893 -0.0861,121.57893 -0.1445,243.15786 -0.006,17.62519 -0.0124,35.25039 -0.0191,52.87559 -8.1e-4,2.13173 -0.002,4.26348 -0.002,6.39521 -0.0128,33.94541 -0.0353,67.89082 -0.0629,101.83622 -0.0283,34.90648 -0.0468,69.81296 -0.0529,104.71944 -8.6e-4,4.93757 -0.002,9.87514 -0.003,14.8127 -2e-4,0.97172 -4e-4,1.94344 -6.1e-4,2.94461 -0.004,15.60159 -0.0174,31.20315 -0.0353,46.80473 -0.0177,15.70934 -0.0244,31.41867 -0.02,47.12803 0.002,9.31731 -0.004,18.63454 -0.0219,27.95184 -0.0113,6.24512 -0.0115,12.49018 -0.003,18.73529 0.005,3.54484 0.005,7.0895 -0.009,10.63432 -0.1677,52.67823 8.99522,111.20453 47.11293,150.67373 13.12736,12.93076 29.63181,21.26676 48.3272,21.29406 1.03648,0 1.03648,0 2.0939,0.01 2.31459,0.01 4.62913,0.01 6.94374,0.01 1.67669,0 3.35339,0.01 5.03008,0.011 4.6074,0.01 9.21478,0.014 13.82219,0.016 4.96958,0 9.93914,0.014 14.90872,0.022 12.00212,0.02 24.00425,0.03 36.0064,0.039 5.65533,0 11.31066,0.01 16.966,0.015 18.80568,0.017 37.61137,0.032 56.41706,0.039 4.87886,0 9.75771,0 14.63657,0.01 1.21258,5e-4 2.42516,0 3.67448,0 19.63415,0.01 39.26823,0.034 58.90235,0.066 20.16873,0.033 40.33743,0.051 60.50619,0.054 11.31958,0 22.63906,0.011 33.95861,0.036 9.64222,0.022 19.28432,0.03 28.92656,0.02 4.91541,0 9.83059,0 14.74596,0.017 4.50959,0.018 9.01879,0.017 13.52839,0 1.6219,0 3.24383,0 4.86569,0.014 20.84058,0.1439 39.16936,-5.1573 54.43327,-19.8752 1.5371,-1.52821 3.0541,-3.07422 4.56836,-4.62504 0.8843,-0.87509 1.76859,-1.75018 2.67969,-2.6518 11.10552,-11.50107 18.76513,-25.86846 25.32031,-40.33956 0.30003,-0.66083 0.60006,-1.32167 0.90918,-2.00253 9.05065,-20.41661 13.72318,-42.85684 16.09082,-64.98403 0.0871,-0.80139 0.17425,-1.60278 0.26401,-2.42847 0.70203,-6.99369 0.87578,-13.90515 0.85904,-20.93061 0.002,-1.80412 0.002,-1.80412 0.003,-3.6447 0.002,-3.32198 -9e-5,-6.64389 -0.004,-9.96585 -0.003,-3.62018 -10e-4,-7.24035 5.8e-4,-10.86052 0.002,-6.33912 4.4e-4,-12.67823 -0.004,-19.01735 -0.006,-9.42597 -0.006,-18.85195 -0.005,-28.27794 10e-4,-15.85735 -0.002,-31.7147 -0.008,-47.57206 -0.006,-15.69879 -0.01,-31.39756 -0.0109,-47.09635 -7e-5,-0.97643 -1.4e-4,-1.95285 -2.1e-4,-2.95886 -3.4e-4,-4.95883 -6.4e-4,-9.91768 -9.3e-4,-14.87651 -0.002,-35.11542 -0.009,-70.23084 -0.0183,-105.34627 -0.009,-34.11229 -0.0163,-68.22458 -0.0205,-102.33687 -2.7e-4,-2.14542 -5.4e-4,-4.29084 -8.1e-4,-6.43626 -0.002,-17.43268 -0.004,-34.86535 -0.006,-52.29803 -0.009,-80.60321 -0.0295,-161.20642 -0.0479,-241.80963 -193.38,0 -386.76,0 -586,0 z"
     fill="#000000"
     id="path5"
     style="stroke-width:0.9999" />
  <path
     d="m 342.3125,522.6875 c 0.80373,-0.0161 1.60746,-0.0322 2.43555,-0.0488 11.29502,-0.009 19.89082,4.46638 28.12695,11.98633 7.34063,11.65865 5.43756,26.16085 5.125,39.375 4.49916,-0.0196 8.99649,-0.0719 13.49487,-0.15259 1.52529,-0.023 3.05073,-0.0375 4.57618,-0.043 8.4942,-0.0362 15.52013,-0.45436 23.19433,-4.49658 5.397,-2.58117 11.29114,-3.60741 17.10962,-4.87036 0.66243,-0.1478 1.32485,-0.2956 2.00736,-0.44788 11.32055,-2.52044 22.65265,-4.32255 34.17575,-5.65979 7.07463,-0.83765 7.07463,-0.83765 13.85205,-2.91967 7.50663,-2.94875 17.12589,-2.42193 24.58984,0.58984 1.33081,1.70019 1.33081,1.70019 2.63672,3.64062 2.23668,2.71566 2.23668,2.71566 5.49682,3.71461 2.4849,-0.19993 4.80918,-0.62276 7.24146,-1.16773 0.81211,-0.14115 1.62422,-0.2823 2.46094,-0.42773 4.89376,-0.93719 9.02781,-2.44201 13.38623,-4.85181 5.66698,-2.8942 12.48779,-3.35703 18.69189,-4.33374 3.00335,-0.55885 5.8478,-1.32645 8.77344,-2.19922 6.30622,-1.78495 11.55152,-2.14234 17.89307,-0.37988 4.52361,1.14276 8.84488,1.33445 13.49365,1.38379 0.84569,0.017 1.69138,0.034 2.5627,0.0515 2.68345,0.0527 5.3669,0.0931 8.05058,0.13209 3.52485,0.0587 7.04953,0.12406 10.57422,0.19141 0.85577,0.0137 1.71153,0.0275 2.59323,0.0417 4.66193,0.0901 9.21545,0.38758 13.85208,0.91928 5.75166,0.51732 10.95056,-0.42537 16.55457,-1.55617 9.45246,-1.82561 18.96888,-1.62701 28.56237,-1.66991 2.43006,-0.0157 4.85945,-0.0486 7.28931,-0.0825 0.73536,0.003 1.47071,0.006 2.22835,0.009 4.2823,-0.0631 6.43855,-0.62916 9.65837,-3.4154 2.76275,-0.40403 5.41224,-0.68426 8.1875,-0.875 6.10958,-0.55641 10.50343,-1.45012 15.69531,-4.89453 3.34664,-1.945 6.95799,-2.6357 10.69531,-3.53906 2.55734,-0.59456 2.55734,-0.59456 4.92188,-2.37891 4.30363,-2.25941 8.77497,-2.16976 13.5,-1.3125 3.48489,1.99223 6.19541,4.39082 8,8 0.68624,4.63214 1.02243,9.06398 -1.21094,13.29297 -4.5399,5.5097 -11.06056,10.83279 -18.21875,12.15625 -1.51677,0.1149 -3.03526,0.20953 -4.55469,0.28125 -3.2052,0.4286 -5.38781,2.46291 -8.01562,4.26953 -4.51267,1.47843 -9.09909,2.03438 -13.8125,2.4375 -3.63272,0.34627 -5.38331,1.15891 -8.1875,3.5625 -4.6383,1.31236 -9.38495,1.20421 -14.16797,1.28125 -1.31403,0.0276 -1.31403,0.0276 -2.65462,0.0558 -3.73699,0.0785 -7.47416,0.14661 -11.21135,0.21521 -2.73227,0.0517 -5.46438,0.1089 -8.19653,0.1665 -0.84894,0.0136 -1.69789,0.0272 -2.57255,0.0411 -4.23363,-0.0232 -4.23363,-0.0232 -8.19698,1.24011 -3.2909,0.43904 -6.58135,0.81443 -9.88281,1.16211 -3.255,0.37209 -6.06871,0.82136 -9.1875,1.88477 -3.46369,1.12685 -6.41798,1.25384 -10.05469,1.26562 -1.19883,0.0168 -2.39766,0.0335 -3.63281,0.0508 C 627,584.00005 627,584.00005 625.41455,582.50713 c -3.85745,-2.40769 -7.83118,-1.96803 -12.28955,-1.98364 -1.44222,-0.0234 -1.44222,-0.0234 -2.91357,-0.0472 -3.07047,-0.0475 -6.14071,-0.0753 -9.21143,-0.10123 -3.07056,-0.0365 -6.14099,-0.0772 -9.21143,-0.12265 -1.90975,-0.0271 -3.8196,-0.0485 -5.72949,-0.0635 -0.8677,-0.0103 -1.7354,-0.0205 -2.62939,-0.0311 -0.76071,-0.007 -1.52142,-0.013 -2.30518,-0.0197 -2.12451,-0.13803 -2.12451,-0.13803 -4.2688,-0.6784 -2.49428,-0.61779 -3.88808,-0.003 -6.29321,0.85287 -4.08805,1.34253 -7.98192,2.08412 -12.25,2.625 -4.57108,0.63251 -7.45918,1.53153 -11.33984,4.125 -3.77051,1.79192 -8.00761,1.88212 -12.11329,2.3711 -6.8647,1.00747 -14.64367,2.45855 -20.85937,5.5664 -13.50992,1.2087 -13.50992,1.2087 -18.54297,-1.23437 -2.72395,-2.34643 -4.46046,-4.77077 -6.45703,-7.76563 -14.10721,1.50665 -28.1188,3.00573 -42,6 -0.69916,0.14019 -1.39831,0.28037 -2.11865,0.42481 -2.2147,0.44421 -4.42304,0.91281 -6.63135,1.38769 -0.64912,0.12883 -1.29825,0.25765 -1.96704,0.39038 -3.19647,0.72217 -5.77851,1.47601 -8.56763,3.25147 -9.95542,6.2367 -20.45659,5.3495 -31.86084,5.16308 -3.47821,-0.0549 -6.95402,-0.0615 -10.43262,-0.0608 -2.23699,-0.0147 -4.47398,-0.0322 -6.71093,-0.0527 -1.02631,-0.003 -2.05261,-0.007 -3.11002,-0.0101 -6.7551,-0.13177 -14.7335,-0.43026 -20.25439,-4.80364 -4.94538,-5.51896 -5.64492,-11.59672 -5.54184,-18.71364 0.003,-0.74617 0.006,-1.49235 0.009,-2.26114 0.0111,-2.36364 0.0362,-4.72689 0.0617,-7.09042 0.01,-1.61067 0.0192,-3.22135 0.0274,-4.83203 0.022,-3.93114 0.0564,-7.86199 0.0976,-11.79297 -7.18028,-1.94961 -12.24834,-1.31617 -18.82422,1.92969 C 329,556 329,556 326.53125,556.95312 c -2.63997,1.09184 -4.92128,2.41126 -7.34375,3.92188 -3.74003,2.28743 -7.50781,4.34041 -11.44531,6.26172 -3.36854,1.66916 -6.309,3.49673 -9.17969,5.92578 -5.17792,3.91501 -10.51442,4.48505 -16.86328,4.39844 C 277.3497,576.71818 274.75079,574.339 272,571 c -2.02132,-4.04263 -1.70934,-8.62572 -1,-13 3.36639,-6.11697 9.04341,-9.69468 15,-13 0.8018,-0.50531 1.60359,-1.01063 2.42969,-1.53125 2.5161,-1.43777 4.81237,-2.29439 7.57031,-3.15625 5.78995,-2.02066 10.57208,-5.05746 15.71875,-8.34766 4.86743,-2.91466 9.9633,-5.0187 15.28125,-6.96484 0.91266,-0.36738 1.82531,-0.73477 2.76562,-1.11328 4.23858,-1.16203 8.17255,-1.21651 12.54688,-1.19922 z"
     fill="#000000"
     id="path6" />
  <path
     d="m 399.42187,869.9292 c 2.15116,-0.0552 4.30143,-0.0913 6.45313,-0.1167 1.7905,-0.0213 1.7905,-0.0213 3.61718,-0.043 8.39909,0.55184 12.71296,2.51985 18.44532,8.73047 0.57556,0.59426 1.15113,1.18852 1.74414,1.80078 4.08468,4.2627 5.448,6.10287 5.41601,11.92578 -0.003,1.03125 -0.006,2.0625 -0.01,3.125 -0.008,1.08024 -0.0168,2.16047 -0.0254,3.27344 -0.005,1.08797 -0.009,2.17594 -0.0137,3.29688 -0.0118,2.69276 -0.0283,5.38541 -0.0488,8.07812 7.58088,-0.0671 15.16126,-0.15688 22.7417,-0.26245 2.57806,-0.0332 5.1562,-0.0613 7.73438,-0.084 3.7088,-0.0336 7.41695,-0.0859 11.12548,-0.14184 1.15022,-0.006 2.30044,-0.0128 3.48551,-0.0194 5.73328,-0.10502 9.94743,-0.29959 14.91293,-3.49236 3.49042,-1.18202 6.95838,-1.20725 10.62501,-1.375 5.87532,-0.31305 11.53108,-1.1144 17.3125,-2.1875 10.67753,-1.92585 22.72117,-3.41493 33.06249,0.5625 1.33334,1.33333 2.66667,2.66667 4,4 2.58749,0 4.42663,-0.71136 6.72266,-1.86719 5.88634,-2.92615 11.54353,-4.03431 17.97656,-5.05371 3.98067,-0.6395 7.71979,-1.4062 11.55078,-2.7041 3.83685,-1.27677 7.33729,-1.61385 11.375,-1.8125 5.84574,-0.32362 9.34914,-1.63836 14.375,-4.5625 5.39943,-1.7882 11.41197,-1.66072 17,-1 2.01677,1.64634 4.0174,3.31268 6,5 10.3152,1.76113 21.32587,-1.34199 30.83204,-5.25391 3.92955,-1.35233 8.0407,-2.02844 12.11718,-2.80468 3.45832,-1.06717 5.37078,-2.54304 8.05078,-4.94141 8.56234,-7.07847 17.99612,-8.32 28.77735,-9.57031 3.23102,-0.32799 3.23102,-0.32799 6.22265,-1.42969 4.69132,-0.54509 8.10331,-0.44835 12.375,1.6875 3.43929,3.02984 5.32687,5.61611 6.12891,10.17969 0.17798,9.13644 0.17798,9.13644 -2.81641,13.19531 -6.16411,5.94707 -15.18079,6.04627 -23.26171,6.64063 -3.31904,0.40619 -5.57906,1.56408 -8.42579,3.29687 -1.49716,0.83841 -2.99741,1.67133 -4.5,2.5 -0.71156,0.40219 -1.42312,0.80438 -2.15625,1.21875 -1.16015,0.63422 -1.16015,0.63422 -2.34375,1.28125 -0.91007,0.50531 -1.82015,1.01063 -2.75781,1.53125 -3.82173,1.73129 -7.52758,2.61008 -11.61719,3.46875 -4.23464,0.89872 -8.19337,1.82773 -12.22656,3.4375 -10.99085,4.23555 -22.29063,5.01861 -33.92724,4.84375 -2.1299,-0.0317 -4.25905,-0.041 -6.38916,-0.0469 -5.48645,-0.0365 -10.69289,-0.1376 -16.08204,-1.23437 -3.08159,0.009 -6.12457,0.3599 -9.1875,0.6875 -1.27593,0.13329 -1.27593,0.13329 -2.57763,0.26928 -5.35725,0.63211 -10.01087,1.61365 -14.83643,4.14087 -2.33617,0.87892 -4.07147,1.10664 -6.53906,1.3125 -5.31543,0.50423 -9.9963,2.12753 -14.98438,3.96485 -0.85464,0.30421 -1.70929,0.60843 -2.58984,0.92187 -4.84248,1.74061 -9.56827,3.64936 -14.28516,5.70313 -1.55074,0.59941 -1.55074,0.59941 -3.13281,1.21093 -5.83478,2.26993 -9.47571,4.2789 -13.86719,8.78907 -6.10302,3.1455 -13.25014,4.29101 -19.99999,3 -3.48124,-2.00416 -6.19376,-4.38751 -8,-8 -0.0956,-1.66445 -0.12985,-3.33282 -0.125,-5 -0.003,-0.88688 -0.005,-1.77375 -0.008,-2.6875 0.13282,-2.3125 0.13282,-2.3125 1.13282,-4.3125 -1.73008,0.0879 -3.45912,0.19605 -5.1875,0.3125 -1.4444,0.087 -1.4444,0.087 -2.91797,0.17578 -2.93487,0.32693 -2.93487,0.32693 -5.21433,2.00193 -3.0336,1.70885 -5.00067,1.98691 -8.45804,2.178 -1.14825,0.0642 -2.29651,0.12844 -3.47955,0.19461 -11.55495,0.42352 -23.11172,0.48555 -34.67328,0.5422 -3.30736,0.0179 -6.61387,0.053 -9.9209,0.10254 -4.02864,0.0603 -8.0565,0.0909 -12.08558,0.10064 -1.52382,0.009 -3.04762,0.0273 -4.57119,0.0567 -13.32163,0.24435 -13.32163,0.24435 -17.88647,-3.50065 -4.84243,-5.06683 -4.82524,-11.19256 -4.77295,-17.83228 C 405,915 405,915 405.50781,913.08985 c 0.66186,-2.81031 0.58602,-5.45719 0.55469,-8.33985 -0.009,-1.07765 -0.0181,-2.15531 -0.0274,-3.26562 -0.0116,-0.81985 -0.0232,-1.63969 -0.0351,-2.48438 -21.26074,-0.57634 -39.30038,1.91007 -59.37891,9.0625 -3.77728,1.34493 -7.544,2.48122 -11.42578,3.48438 C 328.7832,913.24654 323.22338,915.86056 318,920 c -1.39039,3.49026 -1.39039,3.49026 -2,7 -2.5587,3.6076 -5.32548,5.63362 -9.66016,6.58203 -4.88832,0.28913 -8.46931,-0.0983 -12.40235,-3.14453 -3.72939,-3.83671 -4.95141,-7.51903 -4.92578,-12.89453 C 289.63496,908.30509 293.19588,903.00743 300,897 c 3.06999,-2.24142 6.26351,-4.17763 9.5625,-6.0625 0.91112,-0.52094 1.82225,-1.04188 2.76098,-1.57861 8.99721,-4.90813 18.15259,-7.35171 28.0647,-9.68799 4.12522,-1.05965 8.10215,-2.4942 12.11182,-3.9209 15.24782,-5.24408 30.94926,-5.35386 46.92187,-5.8208 z"
     fill="#000000"
     id="path7" />
  <path
     d="m 721.71094,779.47656 c 2.78977,0.63793 4.55816,0.33292 7.28906,-0.47656 1.485,-0.99 1.485,-0.99 3,-2 5.6913,-1.39196 11.64969,-1.59103 17,1 3.64616,2.6044 5.62087,5.2555 6.57813,9.66015 0.28496,4.70839 -0.008,8.35683 -2.95313,12.15235 -1.6914,1.61718 -1.6914,1.61718 -3.625,3.1875 -0.66902,0.58008 -1.33804,1.16015 -2.02734,1.75781 C 739.21928,810.45687 731.1408,809.61759 722,809 c -1.21816,-0.0696 -2.43633,-0.13922 -3.6914,-0.21094 C 710.48619,808.24309 710.48619,808.24309 708,807 c -11.14967,-1.10771 -20.46911,1.91912 -30.19922,7.13672 C 676,815 676,815 672.375,815.9375 c -4.04911,1.27472 -6.19681,3.28159 -9.375,6.0625 -5.91545,4.2916 -10.7537,4.73304 -18,4 -0.66,-0.33 -1.32,-0.66 -2,-1 -2.94619,-0.34028 -5.85694,-0.60554 -8.8125,-0.8125 -0.8076,-0.0767 -1.61519,-0.1534 -2.44726,-0.23242 -5.59158,-0.3801 -7.39143,0.38516 -11.74024,4.04492 -8.90346,4.03937 -18.8328,3.39386 -28.38257,3.28125 -2.70529,-0.0316 -5.41001,-0.041 -8.11547,-0.0469 -1.72071,-0.009 -3.44142,-0.0195 -5.16211,-0.0312 -0.80825,-0.004 -1.6165,-0.009 -2.44924,-0.0129 -5.65596,-0.0729 -5.65596,-0.0729 -7.89061,-1.19025 -2.20775,-0.2144 -4.4162,-0.42162 -6.625,-0.625 -6.93231,-0.94661 -11.0501,-2.83818 -15.375,-8.375 -1.5,-2.9375 -1.5,-2.9375 -2,-5 -3.74901,1.78887 -7.34683,3.53982 -10.75,5.9375 -3.96415,2.51571 -8.08726,4.09797 -12.4375,5.83594 -2.95683,1.17591 -2.95683,1.17591 -5.8125,3.35156 -3.05903,1.9119 -5.07291,2.40615 -8.5625,3.125 -5.0673,1.09113 -8.03242,2.79913 -12.125,5.9375 -9.04346,6.00689 -21.84698,5.65455 -32.3125,3.8125 -2.78352,-1.4445 -4.78349,-2.78349 -7,-5 -1.5524,-0.30651 -3.11806,-0.54811 -4.6875,-0.75 -5.24291,-0.95118 -9.02675,-2.97417 -12.3125,-7.25 0,-0.99 0,-1.98 0,-3 -0.76786,0.002 -1.53571,0.004 -2.32684,0.007 -7.2391,0.02 -14.47818,0.0353 -21.7173,0.0451 -3.72162,0.005 -7.44323,0.0123 -11.16484,0.0236 -3.59208,0.0109 -7.18413,0.0168 -10.77622,0.0194 -1.36992,0.002 -2.73983,0.006 -4.10973,0.0109 -1.91984,0.007 -3.8397,0.008 -5.75956,0.008 -1.09254,0.002 -2.18508,0.004 -3.31073,0.007 -2.47168,-0.10485 -4.47306,-0.44657 -6.83478,-1.12026 -1.505,-0.0761 -3.01261,-0.10845 -4.51953,-0.10546 -1.28681,-0.0222 -1.28681,-0.0222 -2.59961,-0.0449 -1.78369,-0.0246 -3.56776,-0.03 -5.35156,-0.0156 -5.79977,-0.14315 -8.96464,-1.20923 -13.21582,-5.20215 -3.27778,-4.07224 -3.39028,-8.64 -3.31348,-13.63184 -12.28608,1.01877 -23.52695,3.21604 -35.0249,7.80884 -6.51982,2.46949 -12.67185,2.74132 -19.6001,2.75366 -1.09312,0.0367 -2.18625,0.0735 -3.3125,0.11133 -6.33841,0.0345 -10.19403,-0.49931 -14.81372,-4.99658 -3.13822,-4.21498 -3.42553,-8.21274 -2.81128,-13.30225 1.97641,-4.26904 4.52151,-6.96174 8.5625,-9.375 4.07693,-1.16984 8.09239,-1.09843 12.3125,-1.1875 6.02272,-0.2504 10.94878,-1.36693 16.5,-3.6875 12.31788,-5.07412 25.00069,-6.3512 38.25,-6.5 0.84394,-0.014 1.68787,-0.028 2.55738,-0.0425 7.28778,0.056 14.48684,1.13979 20.31762,5.72998 3.27085,4.26202 5.0625,7.25285 5.0625,12.6875 7.11012,1.13893 14.19541,1.17876 21.37984,1.2298 2.25445,0.0166 4.50874,0.0398 6.76311,0.0649 6.40425,0.0703 12.80857,0.13085 19.21301,0.18211 3.9321,0.0319 7.86402,0.0732 11.79597,0.1202 1.48938,0.0159 2.9788,0.0283 4.46824,0.0369 18.93349,0.11124 18.93349,0.11124 23.37593,4.20593 0.47566,0.69223 0.95132,1.38445 1.4414,2.09766 3.13131,3.98989 5.76613,5.29987 10.64453,6.49219 C 472,812.99995 472,812.99995 474,814.99995 c 5.22804,-0.10251 7.77634,-1.51843 11.80469,-4.67969 2.85688,-1.7182 5.66043,-2.41504 8.88281,-3.25781 6.99943,-1.83726 12.96339,-4.64801 19.3125,-8.0625 2.02413,-0.99155 4.05354,-1.97088 6.08594,-2.94531 2.09041,-1.10156 2.09041,-1.10156 4.53516,-2.94532 4.17927,-2.60902 8.4282,-4.13034 13.0664,-5.73437 1.69267,-0.59276 3.38414,-1.18897 5.07422,-1.78906 0.7421,-0.25733 1.4842,-0.51466 2.24878,-0.77979 2.24876,-0.83337 2.24876,-0.83337 4.9895,-2.80615 5.3757,-1.26487 9.97856,-1.3332 15,1 2.84083,1.96626 4.47754,3.9004 6,7 0.24414,3.02783 0.24414,3.02783 0.15625,6.25781 -0.0226,1.07653 -0.0451,2.15306 -0.0684,3.26221 -0.0435,1.22759 -0.0435,1.22759 -0.0879,2.47998 4.87462,0.0992 9.74864,0.17164 14.62403,0.21972 1.65668,0.0201 3.31329,0.0473 4.96972,0.082 2.3882,0.0488 4.77546,0.0713 7.16406,0.0889 0.73462,0.0206 1.46923,0.0413 2.22611,0.0626 5.20408,0.002 7.9342,-1.3274 12.01608,-4.45318 3.03516,-1.16016 3.03516,-1.16016 6.0625,-2.0625 3.13828,-0.94108 5.70928,-1.79534 8.4961,-3.53125 3.98866,-2.29747 7.96731,-2.11973 12.4414,-1.40625 1.6783,1.31866 3.34615,2.6508 5,4 5.75619,0.0928 8.19032,-0.98669 12.73047,-4.54297 10.46949,-6.72137 24.34589,-9.41667 36.26953,-12.45703 0.98098,-0.26039 1.96196,-0.52078 2.97266,-0.78906 8.94763,-2.12696 17.17599,-0.85572 25.73833,2.26567 z"
     fill="#000000"
     id="path8" />
  <path
     d="m 354,387 c 3.18462,2.46371 5.58077,5.06424 6.44922,9.07422 0.11989,1.48405 0.21658,2.97011 0.29297,4.45703 0.63667,6.09667 2.89796,11.76022 6.69531,16.53125 7.70326,5.82442 16.93635,5.21126 26.17212,5.2876 1.46338,0.0165 2.92667,0.0438 4.38965,0.082 10.89546,0.46838 10.89546,0.46838 20.4292,-4.25391 5.81099,-4.35666 16.14223,-2.41879 23.01684,-2.04541 6.34214,1.00139 10.77434,6.01974 14.55469,10.86719 0.75391,2.28906 0.75391,2.28906 1,4 0.825,-0.12375 1.65,-0.2475 2.5,-0.375 3.93045,0.42112 4.01581,0.74478 6.59766,3.35937 5.94337,4.61504 13.22914,3.83628 20.39233,3.68799 2.43893,-0.0472 4.87347,-0.0411 7.31274,-0.0278 C 502.0128,437.61322 508.70832,437.06901 516,433 c 8.23608,-2.3061 19.06516,-2.25895 27,1 2.42428,2.07422 4.44348,4.20533 6,7 0,1.32 0,2.64 0,4 4.83427,-0.0952 9.66813,-0.20157 14.50195,-0.31738 1.63666,-0.0377 3.27338,-0.0727 4.91016,-0.1045 9.79208,-0.19247 19.33342,-0.79842 29.03711,-2.13232 4.69018,-0.58885 9.33028,-0.73055 14.05078,-0.8208 6.64067,-0.20832 12.72281,-0.89826 19.125,-2.6875 12.50545,-3.45679 12.50545,-3.45679 18.375,-1.9375 0.91781,0.82629 1.83562,1.65258 2.78125,2.50391 3.64252,3.25179 6.87201,3.19348 11.59375,2.99609 0.75297,-0.0163 1.50595,-0.0326 2.28174,-0.0493 6.7754,-0.25148 11.62364,-1.6376 17.34326,-5.45068 1.36465,-0.4494 2.74131,-0.86316 4.125,-1.25 4.39919,-1.412 7.73834,-3.49777 11.49609,-6.14453 2.53301,-1.70947 5.12336,-3.16236 7.81641,-4.60547 3.7017,-1.98602 7.37427,-4.00288 11,-6.125 0.78246,-0.45633 1.56492,-0.91266 2.37109,-1.38281 2.28478,-1.44761 2.28478,-1.44761 4.21485,-3.58203 3.20823,-3.10045 6.60134,-3.67915 10.97656,-3.91016 4.95624,0.69885 8.23197,2.35736 12.0625,5.5625 2.60591,4.6234 2.70646,8.24703 1.9375,13.4375 -3.19043,8.57429 -13.90374,14.46278 -21.73828,18.36328 -3.83477,1.92427 -7.58021,3.98023 -11.32422,6.07422 -0.69416,0.38221 -1.38832,0.76441 -2.10352,1.1582 -3.04294,1.70209 -5.77666,3.35783 -8.49414,5.56055 -2.52588,1.99034 -4.67399,2.89989 -7.71484,3.90625 -3.17665,1.08295 -6.18155,2.18699 -9.25,3.5625 -7.0003,2.85198 -13.87984,3.68468 -21.39063,3.67578 -0.81885,0.004 -1.63771,0.009 -2.48138,0.013 -1.7142,0.006 -3.42843,0.006 -5.14264,0.002 -2.61793,-0.003 -5.23475,0.0204 -7.85254,0.0456 -1.67448,0.002 -3.34896,0.003 -5.02344,0.002 -0.77716,0.009 -1.55432,0.0184 -2.35504,0.0279 C 639.44651,471.35131 636.89282,470.48118 633,468 c -2.01231,0.22414 -2.01231,0.22414 -4,1 -1.82369,0.18824 -3.65138,0.33945 -5.48047,0.46484 -1.08346,0.078 -2.16691,0.15598 -3.2832,0.23633 -2.23175,0.15405 -4.46351,0.30771 -6.69531,0.46094 -5.43231,0.39143 -10.81482,0.85851 -16.21166,1.60109 -11.4528,1.5354 -22.90123,1.67838 -34.44411,1.71727 -3.53948,0.0197 -7.07676,0.0821 -10.61572,0.14453 -2.26952,0.013 -4.53905,0.0236 -6.80859,0.0312 -1.04798,0.0247 -2.09596,0.0494 -3.17569,0.0748 -6.10533,-0.0372 -9.57133,-0.81621 -14.01654,-5.11206 C 526.42401,466.26497 525.62126,463.8992 525,461 c -1.0725,0.45375 -2.145,0.9075 -3.25,1.375 -0.60328,0.25523 -1.20656,0.51047 -1.82813,0.77344 -1.93694,0.82054 -1.93694,0.82054 -3.74813,1.88663 -2.46525,1.09433 -4.18696,1.23027 -6.8754,1.25546 -0.92842,0.0128 -1.85683,0.0255 -2.81339,0.0387 -0.99792,0.002 -1.99585,0.005 -3.02401,0.007 -1.03604,0.007 -2.07207,0.0133 -3.1395,0.0202 -2.19388,0.0101 -4.38779,0.0148 -6.58169,0.0145 -3.33175,0.004 -6.66215,0.0406 -9.99366,0.0786 -2.13671,0.006 -4.27343,0.01 -6.41015,0.0117 -0.98578,0.0144 -1.97156,0.0287 -2.98722,0.0435 C 465.64146,466.44793 458.95151,464.21825 452,459 c -1.71445,-0.43739 -3.44668,-0.80849 -5.1875,-1.125 C 440.10092,456.20837 436.28717,452.25427 432,447 c -0.33,-0.66 -0.66,-1.32 -1,-2 -2.48761,1.14813 -4.3967,2.3176 -6.5542,4.04492 -4.49189,2.54861 -7.88126,2.53361 -12.95361,2.48633 -0.92071,0.004 -1.84141,0.008 -2.79001,0.0116 -1.95168,0.003 -3.9034,-0.005 -5.85501,-0.0214 -2.91479,-0.0211 -5.827,-3.7e-4 -8.7417,0.0254 -34.19513,0.0641 -34.19513,0.0641 -44.24976,-9.67432 -0.57113,-0.63857 -1.14227,-1.27714 -1.73071,-1.93506 -0.64655,-0.66177 -1.29309,-1.32355 -1.95923,-2.00537 C 340.09509,431.51183 335.49164,424.82424 334,416 c -4.59216,0.53397 -9.09929,1.36729 -13.625,2.3125 -1.62809,0.33451 -1.62809,0.33451 -3.28906,0.67578 -3.44639,1.12989 -5.31333,2.70912 -8.08594,5.01172 -2.15859,1.08062 -4.34852,2.10046 -6.5625,3.0625 -4.47902,1.91502 -4.47902,1.91502 -8.50781,4.58594 -3.84495,2.69302 -8.47148,2.10089 -12.92969,1.35156 -4.04535,-1.82902 -6.27589,-4.25516 -7.97266,-8.34375 -1.27233,-4.93695 -1.42103,-9.17029 0.7461,-13.84375 4.2017,-6.20888 10.66474,-8.63895 17.61328,-10.66016 2.80119,-1.02799 2.80119,-1.02799 4.88672,-3.61328 3.6215,-3.37246 6.92339,-4.04362 11.66406,-5.10156 1.71139,-0.40959 3.42232,-0.82106 5.13281,-1.23438 1.25925,-0.29874 1.25925,-0.29874 2.54395,-0.60351 2.11576,-0.53176 4.17812,-1.13131 6.25293,-1.80274 C 332.12908,384.49259 343.74254,382.78712 354,387 Z"
     fill="#000000"
     id="path9" />
  <path
     d="m 741.80859,252.30469 c 3.50077,3.37949 4.6481,6.34903 4.94141,11.19531 -0.2635,5.03414 -1.73686,7.71861 -5.24219,11.25781 -3.31768,2.73323 -6.23803,2.40519 -10.44531,2.55469 -9.39754,0.49099 -16.68293,2.70406 -24.0625,8.6875 -1.89107,0.48907 -3.78497,0.97161 -5.69532,1.37891 -6.23586,1.68051 -12.0567,4.97597 -17.80468,7.87109 -6.32602,3.16301 -11.6688,3.00281 -18.625,3.0625 -1.10344,0.029 -2.20688,0.058 -3.34375,0.0879 -6.33971,0.0489 -11.05956,-0.48782 -16.67945,-3.51806 C 641.50114,293.28585 639.45091,293.8497 636,295 c -6.137,3.41162 -10.78288,7.26005 -14.55079,13.20313 -1.85887,2.3048 -3.86128,3.37657 -6.44921,4.79687 -9.60216,5.55112 -9.60216,5.55112 -18.5,12.125 -5.5984,4.1988 -11.2269,4.14025 -17.92188,4.02734 -0.9787,-0.008 -1.9574,-0.0166 -2.96576,-0.0252 -2.25145,-0.0209 -4.50286,-0.0468 -6.75421,-0.0767 -4.26971,-0.0559 -8.53944,-0.0965 -12.80933,-0.13592 -8.36349,-0.0797 -16.72665,-0.18019 -25.08984,-0.28687 -4.39221,-0.0558 -8.78447,-0.10569 -13.17676,-0.1544 -3.40916,-0.0388 -6.81825,-0.0819 -10.22735,-0.12622 -1.62191,-0.0203 -3.24384,-0.0391 -4.86579,-0.0561 -2.24573,-0.024 -4.4913,-0.0541 -6.73694,-0.0856 -1.91114,-0.0233 -1.91114,-0.0233 -3.8609,-0.0471 C 489,328.00001 489,328.00001 486,327.00001 c -1.73129,-0.0916 -3.46554,-0.13161 -5.19922,-0.14063 -26.14363,-0.40402 -26.14363,-0.40402 -37.67972,-6.92079 -2.50859,-1.11006 -4.33185,-1.19623 -7.06979,-1.20982 -0.98137,-0.0102 -1.96274,-0.0204 -2.97385,-0.0309 -1.05422,-0.002 -2.10844,-0.004 -3.19461,-0.007 -2.23829,-0.0252 -4.47657,-0.0506 -6.71484,-0.0762 -3.52425,-0.0287 -7.04845,-0.0528 -10.57276,-0.0715 -3.40438,-0.0217 -6.80821,-0.0611 -10.2124,-0.1023 -1.57526,-1.7e-4 -1.57526,-1.7e-4 -3.18234,-3.5e-4 C 393.77449,318.36777 389.59199,318.22946 385,315 c -1.50415,-2.0232 -1.50415,-2.0232 -2.78516,-4.15235 -2.59165,-3.11411 -3.86003,-3.7874 -7.92139,-4.47705 -4.57854,-0.22444 -9.15216,-0.0932 -13.73095,0.0669 -17.47521,0.57305 -17.47521,0.57305 -22.33203,-3.63281 -1.11378,-1.2359 -2.19465,-2.50276 -3.23047,-3.80469 -0.93328,-0.92425 -1.86657,-1.84851 -2.82813,-2.80078 -1.62611,-1.68643 -3.25109,-3.37395 -4.875,-5.0625 -4.39682,-4.09024 -7.73694,-4.53315 -13.58984,-4.3789 -7.10037,0.63524 -12.33216,2.85112 -18.14453,6.92968 -4.76981,3.17088 -8.30786,4.31871 -14.03907,3.94922 -4.15377,-1.04809 -6.83531,-3.37377 -9.52343,-6.63672 -2.0251,-4.0502 -1.68908,-8.61604 -1,-13 4.8425,-9.58549 16.87583,-14.63806 26.5,-17.9375 13.24664,-4.15466 29.84515,-4.06716 42.34765,2.39453 3.88908,2.788 6.86312,6.46328 9.95313,10.08204 2.67334,2.99149 4.21285,4.36837 8.25854,4.74804 1.2321,0.0187 2.46421,0.0374 3.73365,0.0566 0.99728,0.0219 0.99728,0.0219 2.01472,0.0443 2.12654,0.0464 4.25299,0.0806 6.37981,0.11194 22.28183,0.33215 22.28183,0.33215 28.8125,6.5 0.76312,0.70125 1.52625,1.4025 2.3125,2.125 1.6875,1.875 1.6875,1.875 1.6875,3.875 1.2607,-0.0105 2.5214,-0.021 3.82031,-0.0317 4.70391,-0.0364 9.40781,-0.0592 14.11182,-0.0781 2.03094,-0.01 4.06187,-0.0236 6.09277,-0.041 2.92923,-0.0244 5.85828,-0.0356 8.7876,-0.0444 1.34892,-0.0155 1.34892,-0.0155 2.72509,-0.0313 6.73412,-0.001 13.40627,0.50936 19.21241,4.28909 4.45915,2.65835 7.78452,3.06193 12.93359,3.21875 1.63872,0.0561 1.63872,0.0561 3.31055,0.11329 1.13631,0.0348 2.27261,0.0696 3.44336,0.10546 2.24881,0.0691 4.49752,0.1419 6.74609,0.21875 0.99572,0.0303 1.99144,0.0606 3.01733,0.0918 C 490,298 490,298 492.15498,298.49306 c 3.71721,0.66235 7.3999,0.73345 11.16435,0.80747 0.82508,0.0195 1.65016,0.0391 2.50025,0.0592 8.60131,0.19612 17.20395,0.33649 25.80639,0.47254 4.07604,0.0662 8.15118,0.14954 12.22657,0.24805 4.93331,0.11912 9.86632,0.20803 14.8006,0.27569 1.87396,0.0307 3.74778,0.0717 5.62126,0.12373 14.01679,0.55028 14.01679,0.55028 25.7256,-6.47975 1.11138,-0.74976 2.23555,-1.48113 3.375,-2.1875 2.56424,-1.65418 2.56424,-1.65418 4.25,-3.4375 1.375,-1.375 1.375,-1.375 3.27734,-2.21875 2.46533,-1.35891 3.45927,-2.71762 5.03516,-5.03125 3.80542,-5.57562 8.67686,-8.64278 14.5625,-11.8125 1.10343,-0.60199 2.20687,-1.20398 3.34375,-1.82422 9.10658,-4.29407 19.89082,-3.43777 29.28125,-0.48828 6.99058,2.17624 14.40851,4.22606 21.30468,0.78907 1.50088,-1.02309 2.97356,-2.08884 4.41407,-3.19532 4.20106,-3.10513 9.08045,-4.92723 14.02734,-6.51562 3.30802,-1.13984 6.35588,-2.55366 9.50391,-4.07813 11.16339,-5.15426 28.49273,-9.58784 39.43359,-1.6953 z"
     fill="#000000"
     id="path10" />
  <path
     d="m 482.625,58.75 c 1.17691,-0.02063 2.35383,-0.04125 3.56641,-0.0625 6.42172,-0.02889 11.16588,0.170105 16.80859,3.3125 0.73348,0.376406 1.46695,0.752812 2.22266,1.140625 C 512.88893,67.763174 517.65892,73.189516 520,82 c 0.37296,3.160488 0.37664,6.258808 0.3125,9.4375 0.003,0.794707 0.006,1.589414 0.01,2.408203 -0.10443,11.664207 -2.99886,18.441337 -10.8848,26.904297 -10.86873,8.13776 -26.57299,7.37806 -39.4375,6.25 -1.82556,-1.82556 -1.12772,-4.70539 -1.1294,-7.15625 -0.003,-1.31807 -0.006,-2.63613 -0.01,-3.99414 0.002,-1.44987 0.004,-2.89974 0.006,-4.34961 -6.7e-4,-1.47591 -0.002,-2.95182 -0.003,-4.42773 -0.001,-3.09702 6.8e-4,-6.19401 0.005,-9.29102 0.006,-3.978335 0.002,-7.956604 -0.004,-11.934937 -0.004,-3.048792 -0.002,-6.097569 1.3e-4,-9.146362 6.7e-4,-1.467285 -1.5e-4,-2.934572 -0.002,-4.401855 -0.002,-2.047282 0.002,-4.094569 0.007,-6.141846 8e-4,-1.167246 0.002,-2.334492 0.002,-3.537109 0.30218,-6.22879 8.94844,-3.848502 13.75217,-3.869141 z"
     fill="#0c0c0c"
     id="path11" />
  <path
     d="m 564.5,77.6875 c 5.08773,3.04193 8.84591,7.004311 11.5,12.3125 2.12651,8.550358 2.26858,18.13956 -2,26 -0.47566,0.92232 -0.47566,0.92232 -0.96094,1.86328 C 569.73234,123.33931 565.04933,126.1475 559,128 c -6.83289,0.93399 -13.32372,0.88076 -19.35547,-2.73828 -5.253,-4.03021 -8.91393,-9.69448 -9.96411,-16.25952 -0.15367,-2.11487 -0.19912,-4.19439 -0.18042,-6.3147 0.005,-0.74476 0.01,-1.48951 0.0151,-2.25684 0.22505,-7.142647 2.0762,-12.674733 6.94189,-18.036129 C 537.9375,81.0625 537.9375,81.0625 541,79 c 0.84563,-0.598125 1.69125,-1.19625 2.5625,-1.8125 6.65792,-2.300008 14.46121,-2.528836 20.9375,0.5 z"
     fill="#101010"
     id="path12" />
  <path
     d="M 445.94141,79.582031 C 448.6405,81.44118 450.32036,83.178198 452,86 c 0.5775,0.94875 1.155,1.8975 1.75,2.875 2.98822,7.544823 2.33305,17.28106 -0.5,24.75 -3.20307,6.68228 -6.65523,10.27016 -13.39453,13.42578 -6.06604,2.01648 -12.77412,2.02533 -18.79297,-0.23828 -6.14023,-3.63402 -10.39871,-8.78829 -12.65625,-15.60547 -1.67954,-9.12442 -1.23844,-18.249932 3.8125,-26.101562 8.26228,-10.901608 22.24343,-12.080375 33.72266,-5.523437 z"
     fill="#101010"
     id="path13" />
  <path
     d="m 478,67 c 19.49191,0 19.49191,0 27.16406,6.128906 5.36012,5.462757 6.08834,12.044431 6.27344,19.433594 -0.27066,8.66978 -1.59937,15.58962 -7.73828,21.99609 C 496.11044,120.99597 487.86541,119 478,119 c 0,-17.16 0,-34.32 0,-52 z"
     fill="#fbfbfb"
     id="path14" />
  <path
     d="m 559,84 c 4.02998,1.767537 5.4922,3.22137 7.875,6.875 2.23086,6.171598 2.40366,14.22999 0.36328,20.44531 -1.85156,3.38111 -4.27263,6.24673 -7.23828,8.67969 -5.73913,1.0628 -11.23352,1.2012 -16.125,-2.125 C 538.69147,109.92692 537.90255,103.41392 539,94 c 3.72166,-9.796089 10.21103,-11.022921 20,-10 z"
     fill="#f8f8f8"
     id="path15" />
  <path
     d="m 437,84 c 3.85907,1.630126 6.23775,3.514131 8.15625,7.253906 2.42521,7.893159 1.66829,16.590394 -1.89063,23.976564 -1.58044,2.20969 -2.8959,3.41482 -5.26562,4.76953 -5.8954,0.90351 -11.26929,1.25561 -16.1875,-2.3125 C 416.97797,110.51906 416.3218,104.58225 417,96 c 2.57929,-10.885841 9.64119,-13.712765 20,-12 z"
     fill="#f8f8f8"
     id="path16" />
  <path
     d="m 367.50391,58.870605 c 1.43654,-0.0047 1.43654,-0.0047 2.9021,-0.0096 1.04164,0.002 2.08329,0.004 3.15649,0.0061 1.06163,-9.57e-4 2.12325,-0.0019 3.21704,-0.0029 2.2496,-6.82e-4 4.49919,0.0012 6.74878,0.0053 3.45675,0.0053 6.91338,5.6e-5 10.37012,-0.0063 2.17969,6.61e-4 4.35938,0.0019 6.53906,0.0039 1.56247,-0.003 1.56247,-0.003 3.1565,-0.0061 0.95769,0.0032 1.91538,0.0063 2.9021,0.0096 0.84748,7.96e-4 1.69495,0.0016 2.56811,0.0024 C 411,59 411,59 412,59.999999 412.125,63 412.125,63 412,66 c -0.33,0.329999 -0.66,0.659999 -1,1 -6.6,0 -13.2,0 -20,0 0,19.8 0,39.6 0,60 -2.64,0 -5.28,0 -8,0 0,-19.8 0,-39.6 0,-60 -6.6,0 -13.2,0 -20,0 -1,-1 -1,-1 -1.125,-4 0.19405,-4.657048 1.39947,-4.125424 5.62891,-4.129395 z"
     fill="#090909"
     id="path17" />
  <path
     d="M 610.42187,76.902344 C 612.32552,77.850794 614.17029,78.915733 616,80 c 0,1.98 0,3.96 0,6 -2.38565,-0.575844 -4.66683,-1.222276 -7,-2 -1.66268,-0.142202 -3.33152,-0.220205 -5,-0.25 -0.86626,-0.02578 -1.7325,-0.05156 -2.625,-0.07813 -2.42827,0.136833 -2.42827,0.136833 -4.16016,1.691406 -1.40083,1.633768 -1.40083,1.633768 -1.65234,4.074219 0.58007,3.397575 1.83294,4.350838 4.4375,6.5625 2.55351,1.10717 2.55351,1.10717 5.3125,1.875 5.60728,1.891613 10.93719,4.62439 13.6875,10.125 0.55308,4.53349 0.42758,8.07357 -1.5,12.25 -4.09436,4.50379 -7.51081,7.36312 -13.69922,8.16406 C 597.9006,128.56207 592.98587,128.50358 588,125 c -2,-2 -2,-2 -2.125,-5.125 0.0412,-0.94875 0.0825,-1.8975 0.125,-2.875 2.50694,0.41782 4.61826,0.79069 6.85937,2.01953 2.52318,1.15569 4.37426,1.28032 7.14063,1.29297 0.84562,0.0168 1.69124,0.0335 2.5625,0.0508 3.07771,-0.4587 4.37123,-1.01481 6.4375,-3.36328 0.3338,-3.62564 0.3338,-3.62564 0,-7 -0.74105,-0.36968 -0.74105,-0.36968 -1.49708,-0.74683 -2.25731,-1.13475 -4.50499,-2.28746 -6.75292,-3.44067 -1.16596,-0.58105 -1.16596,-0.58105 -2.35547,-1.17383 C 593.195,101.95003 589.68972,99.37945 587,93.999999 c -0.6886,-4.91854 -0.56074,-8.109424 2.125,-12.375 6.19881,-5.659785 13.21277,-7.734633 21.29687,-4.722655 z"
     fill="#101010"
     id="path18" />
  <path
     d="m 419,79 c 0.66,0.33 1.32,0.66 2,1 -2.97,2.97 -5.94,5.94 -9,9 0,-4.309679 2.16725,-5.897468 5,-9 0.66,-0.33 1.32,-0.66 2,-1 z"
     fill="#343434"
     id="path19" />
  <path
     d="m 547,84 c 0.66,0.33 1.32,0.66 2,1 -2.31,2.31 -4.62,4.62 -7,7 -0.33,-0.66 -0.66,-1.32 -1,-2 2,-2 4,-4 6,-6 z"
     fill="#c7c7c7"
     id="path20" />
</svg>
