<?xml version="1.0" encoding="UTF-8" standalone="no"?>
<!-- Created with Inkscape (http://www.inkscape.org/) -->

<svg
   width="8"
   height="7.1999998"
   viewBox="0 0 8.0000008 7.1999998"
   version="1.1"
   id="svg1"
   sodipodi:docname="reload.svg"
   inkscape:version="1.4.3 (0d15f75, 2025-12-25)"
   xmlns:inkscape="http://www.inkscape.org/namespaces/inkscape"
   xmlns:sodipodi="http://sodipodi.sourceforge.net/DTD/sodipodi-0.dtd"
   xmlns="http://www.w3.org/2000/svg"
   xmlns:svg="http://www.w3.org/2000/svg">
  <sodipodi:namedview
     id="namedview1"
     pagecolor="#ffffff"
     bordercolor="#000000"
     borderopacity="0"
     inkscape:showpageshadow="2"
     inkscape:pageopacity="0.0"
     inkscape:pagecheckerboard="true"
     inkscape:deskcolor="#d1d1d1"
     inkscape:zoom="59.097224"
     inkscape:cx="3.9764981"
     inkscape:cy="5.2032901"
     inkscape:window-width="1920"
     inkscape:window-height="1111"
     inkscape:window-x="-9"
     inkscape:window-y="-9"
     inkscape:window-maximized="1"
     inkscape:current-layer="svg1" />
  <defs
     id="defs1" />
  <rect
     style="fill:#808080;fill-opacity:0;stroke:#000000;stroke-width:0.687658;stroke-opacity:0"
     id="rect6"
     width="61.160355"
     height="46.646648"
     x="-68.593636"
     y="19.37677"
     transform="matrix(0.9560712,-0.29313456,0.29802481,0.95455812,0,0)" />
  <rect
     style="fill:#000000;fill-opacity:0;stroke:#000000;stroke-opacity:0"
     id="rect7"
     width="116.58949"
     height="77.415428"
     x="339.1965"
     y="30.770674"
     transform="rotate(-17.19181)" />
  <rect
     style="fill:#000000;fill-opacity:0;stroke:#000000;stroke-opacity:0"
     id="rect8"
     width="74.617264"
     height="63.424683"
     x="339.19653"
     y="526.97559"
     transform="rotate(-17.19181)" />
  <rect
     style="fill:#000000;fill-opacity:0;stroke:#000000;stroke-opacity:0"
     id="rect9"
     width="84.877151"
     height="72.751846"
     x="-115.96889"
     y="506.45584"
     transform="rotate(-17.19181)" />
  <path
     id="path9"
     style="fill:#808080;fill-opacity:1;stroke:#000000;stroke-width:0.0147714;stroke-opacity:0"
     d="M 3.1818317 1.5293964 A 3.5966544 3.7061486 90 0 0 1.7634056 1.256557 A 3.5966544 3.7061486 90 0 0 -1.9423717 4.8517046 A 3.5966544 3.7061486 90 0 0 1.7642085 8.4486323 A 3.5966544 3.7061486 90 0 0 3.1696615 8.1803764 L 2.6506818 7.4935907 A 2.7753001 2.8454136 12.502586 0 1 1.6857448 7.6739857 A 2.7753001 2.8454136 12.502586 0 1 -1.0779882 4.8451421 A 2.7753001 2.8454136 12.502586 0 1 1.7160243 1.9901724 A 2.7753001 2.8454136 12.502586 0 1 2.77875 2.2002992 A 2.7753001 2.8454136 12.502586 0 1 4.4806318 4.8172386 A 2.7753001 2.8454136 12.502586 0 1 4.3746847 5.5825943 L 5.0631633 6.4923161 A 3.5966544 3.7061486 90 0 0 5.4699858 4.8534846 A 3.5966544 3.7061486 90 0 0 3.1818317 1.5293964 z "
     transform="matrix(0.90948002,-0.41574762,0.44743967,0.89431412,0,0)" />
  <path
     style="fill:#808080;fill-opacity:1;stroke:#000000;stroke-width:0.0229788;stroke-opacity:0"
     id="path24"
     d="M 5.9882889,2.8736694 6.9449002,3.1761323 7.9015116,3.4785951 7.1414402,4.0778986 6.3813689,4.6772021 6.184829,3.7754357 Z" />
  <path
     style="fill:none;stroke:#000000;stroke-width:0.0119651;stroke-opacity:0"
     d="M -4.0083232,4.1160095 V -4.2177132 H 3.7391075 11.486538 V 4.1160095 12.449732 H 3.7391075 -4.0083232 Z M 4.1459223,7.159718 C 4.8771736,7.0969624 5.6342498,6.7885516 6.209611,6.3190314 6.3130017,6.23466 6.5449337,6.0140048 6.5449337,6.0000124 c 0,-0.00519 -0.1751319,-0.098891 -0.3891819,-0.2082218 L 5.76657,5.5930074 5.6562071,5.6923505 C 5.2102799,6.0937518 4.6886154,6.3286696 4.0932943,6.3961668 3.9334281,6.4142923 3.5267372,6.4042779 3.3741706,6.3784589 2.5852329,6.2449466 1.9185646,5.8385787 1.4563493,5.2094501 1.3085645,5.0082976 1.1440945,4.6995774 1.0650536,4.4749638 1.0117896,4.3236011 0.95061524,4.0796371 0.92543388,3.9181581 0.8994152,3.7513097 0.89592999,3.3346862 0.9191815,3.1707631 1.0807376,2.0317961 1.8784968,1.1518388 2.9853034,0.89175619 3.2324553,0.8336793 3.311466,0.82556501 3.6254386,0.82601538 c 0.251273,3.6051e-4 0.3150791,0.004325 0.4466961,0.0277532 0.6212316,0.1105821 1.1574608,0.38690382 1.5939129,0.82135162 0.3339178,0.3323844 0.5934712,0.7619037 0.7290503,1.2064615 0.017724,0.058118 0.029012,0.108883 0.025082,0.112812 -0.00393,0.00393 -0.1024458,-0.023188 -0.2189263,-0.06026 C 6.084773,2.8970617 5.987794,2.8684067 5.9857447,2.8704557 c -0.00459,0.00459 0.3770814,1.7637485 0.3890532,1.7931679 0.00712,0.017496 0.1389916,-0.081668 0.7637603,-0.5743269 0.415335,-0.3275109 0.7560462,-0.6008588 0.757136,-0.6074396 0.00109,-0.00658 -0.085538,-0.039381 -0.1925061,-0.072889 L 7.508701,3.3480449 7.4936292,3.2115434 C 7.3446819,1.8625615 6.3844178,0.70175832 5.0380612,0.24316044 4.6166298,0.09961186 4.2330811,0.03727884 3.7750029,0.03789253 3.5023216,0.03825783 3.3618307,0.04954395 3.11692,0.09075849 2.4977768,0.19495048 1.8715975,0.47416764 1.3759915,0.86704912 1.2258502,0.98607072 0.92157058,1.2880304 0.80888213,1.4298347 0.37170437,1.9799684 0.11057229,2.6279815 0.04728697,3.3197731 0.02790834,3.5316076 0.03874649,3.8982257 0.07057425,4.1074993 0.1850516,4.8602093 0.533912,5.5444615 1.0795448,6.0864866 1.8737407,6.8754313 2.9734724,7.2603372 4.1459223,7.159718 Z"
     id="path1" />
  <path
     style="fill:none;stroke:#000000;stroke-width:0.0119651;stroke-opacity:0"
     d="M -4.0083232,4.1160095 V -4.2177132 H 3.7391075 11.486538 V 4.1160095 12.449732 H 3.7391075 -4.0083232 Z M 4.1459223,7.159718 C 4.8771736,7.0969624 5.6342498,6.7885516 6.209611,6.3190314 6.3130017,6.23466 6.5449337,6.0140048 6.5449337,6.0000124 c 0,-0.00519 -0.1751319,-0.098891 -0.3891819,-0.2082218 L 5.76657,5.5930074 5.6562071,5.6923505 C 5.2102799,6.0937518 4.6886154,6.3286696 4.0932943,6.3961668 3.9334281,6.4142923 3.5267372,6.4042779 3.3741706,6.3784589 2.5852329,6.2449466 1.9185646,5.8385787 1.4563493,5.2094501 1.3085645,5.0082976 1.1440945,4.6995774 1.0650536,4.4749638 1.0117896,4.3236011 0.95061524,4.0796371 0.92543388,3.9181581 0.8994152,3.7513097 0.89592999,3.3346862 0.9191815,3.1707631 1.0807376,2.0317961 1.8784968,1.1518388 2.9853034,0.89175619 3.2324553,0.8336793 3.311466,0.82556501 3.6254386,0.82601538 c 0.251273,3.6051e-4 0.3150791,0.004325 0.4466961,0.0277532 0.6212316,0.1105821 1.1574608,0.38690382 1.5939129,0.82135162 0.3339178,0.3323844 0.5934712,0.7619037 0.7290503,1.2064615 0.017724,0.058118 0.029012,0.108883 0.025082,0.112812 -0.00393,0.00393 -0.1024458,-0.023188 -0.2189263,-0.06026 C 6.084773,2.8970617 5.987794,2.8684067 5.9857447,2.8704557 c -0.00459,0.00459 0.3770814,1.7637485 0.3890532,1.7931679 0.00712,0.017496 0.1389916,-0.081668 0.7637603,-0.5743269 0.415335,-0.3275109 0.7560462,-0.6008588 0.757136,-0.6074396 0.00109,-0.00658 -0.085538,-0.039381 -0.1925061,-0.072889 L 7.508701,3.3480449 7.4936292,3.2115434 C 7.3446819,1.8625615 6.3844178,0.70175832 5.0380612,0.24316044 4.6166298,0.09961186 4.2330811,0.03727884 3.7750029,0.03789253 3.5023216,0.03825783 3.3618307,0.04954395 3.11692,0.09075849 2.4977768,0.19495048 1.8715975,0.47416764 1.3759915,0.86704912 1.2258502,0.98607072 0.92157058,1.2880304 0.80888213,1.4298347 0.37170437,1.9799684 0.11057229,2.6279815 0.04728697,3.3197731 0.02790834,3.5316076 0.03874649,3.8982257 0.07057425,4.1074993 0.1850516,4.8602093 0.533912,5.5444615 1.0795448,6.0864866 1.8737407,6.8754313 2.9734724,7.2603372 4.1459223,7.159718 Z"
     id="path2" />
  <path
     style="fill:none;stroke:#000000;stroke-width:0.0119651;stroke-opacity:0"
     d="M -4.0083232,4.1160095 V -4.2177132 H 3.7391075 11.486538 V 4.1160095 12.449732 H 3.7391075 -4.0083232 Z M 4.1459223,7.159718 C 4.8771736,7.0969624 5.6342498,6.7885516 6.209611,6.3190314 6.3130017,6.23466 6.5449337,6.0140048 6.5449337,6.0000124 c 0,-0.00519 -0.1751319,-0.098891 -0.3891819,-0.2082218 L 5.76657,5.5930074 5.6562071,5.6923505 C 5.2102799,6.0937518 4.6886154,6.3286696 4.0932943,6.3961668 3.9334281,6.4142923 3.5267372,6.4042779 3.3741706,6.3784589 2.5852329,6.2449466 1.9185646,5.8385787 1.4563493,5.2094501 1.3085645,5.0082976 1.1440945,4.6995774 1.0650536,4.4749638 1.0117896,4.3236011 0.95061524,4.0796371 0.92543388,3.9181581 0.8994152,3.7513097 0.89592999,3.3346862 0.9191815,3.1707631 1.0807376,2.0317961 1.8784968,1.1518388 2.9853034,0.89175619 3.2324553,0.8336793 3.311466,0.82556501 3.6254386,0.82601538 c 0.251273,3.6051e-4 0.3150791,0.004325 0.4466961,0.0277532 0.6212316,0.1105821 1.1574608,0.38690382 1.5939129,0.82135162 0.3339178,0.3323844 0.5934712,0.7619037 0.7290503,1.2064615 0.017724,0.058118 0.029012,0.108883 0.025082,0.112812 -0.00393,0.00393 -0.1024458,-0.023188 -0.2189263,-0.06026 C 6.084773,2.8970617 5.987794,2.8684067 5.9857447,2.8704557 c -0.00459,0.00459 0.3770814,1.7637485 0.3890532,1.7931679 0.00712,0.017496 0.1389916,-0.081668 0.7637603,-0.5743269 0.415335,-0.3275109 0.7560462,-0.6008588 0.757136,-0.6074396 0.00109,-0.00658 -0.085538,-0.039381 -0.1925061,-0.072889 L 7.508701,3.3480449 7.4936292,3.2115434 C 7.3446819,1.8625615 6.3844178,0.70175832 5.0380612,0.24316044 4.6166298,0.09961186 4.2330811,0.03727884 3.7750029,0.03789253 3.5023216,0.03825783 3.3618307,0.04954395 3.11692,0.09075849 2.4977768,0.19495048 1.8715975,0.47416764 1.3759915,0.86704912 1.2258502,0.98607072 0.92157058,1.2880304 0.80888213,1.4298347 0.37170437,1.9799684 0.11057229,2.6279815 0.04728697,3.3197731 0.02790834,3.5316076 0.03874649,3.8982257 0.07057425,4.1074993 0.1850516,4.8602093 0.533912,5.5444615 1.0795448,6.0864866 1.8737407,6.8754313 2.9734724,7.2603372 4.1459223,7.159718 Z"
     id="path3" />
</svg>
